<?xml version="1.0" standalone="no"?>
<!DOCTYPE svg PUBLIC "-//W3C//DTD SVG 1.1//EN" "http://www.w3.org/Graphics/SVG/1.1/DTD/svg11.dtd" >
<svg xmlns="http://www.w3.org/2000/svg">
<metadata></metadata>
<defs>
<font id="choplinmedium-demo" horiz-adv-x="839" >
<font-face units-per-em="1000" ascent="800" descent="-200" />
<missing-glyph horiz-adv-x="263" />
<glyph unicode="fi" horiz-adv-x="773" d="M737 106v-106h-267v106h76v261h-288v-261h114v-106h-305v106h76v261h-133v106h133v55q0 106 58.5 168.5t153.5 62.5q13 0 26 -0.5t22.5 -1.5t22 -3t20 -3t21.5 -4.5t20.5 -5t24 -6t24.5 -6.5l-22 -99q-94 23 -145 23q-52 0 -81.5 -33t-29.5 -92v-55h403v-367h76z" />
<glyph unicode="fl" horiz-adv-x="753" d="M717 106v-106h-267v106h76v505q-63 42 -127 42q-69 0 -105 -36.5t-36 -95.5v-48h179v-106h-179v-261h114v-106h-305v106h76v261h-133v106h133v48q0 109 69 173.5t180 64.5q84 0 178 -50h71v-603h76z" />
<glyph unicode=" "  horiz-adv-x="263" />
<glyph unicode="&#x09;" horiz-adv-x="263" />
<glyph unicode="&#xa0;" horiz-adv-x="263" />
<glyph unicode="!" horiz-adv-x="282" d="M209 581l-26 -371h-85l-26 371v99h137v-99zM141 142q32 0 55.5 -22t23.5 -53q0 -33 -23 -54.5t-56 -21.5q-32 0 -55 22t-23 54q0 31 23 53t55 22z" />
<glyph unicode="&#x22;" horiz-adv-x="351" d="M148 680v-276h-108v276h108zM311 680v-276h-108v276h108z" />
<glyph unicode="#" horiz-adv-x="761" d="M559 276h115v-104h-148l-53 -172h-120l54 172h-156l-53 -172h-120l54 172h-99v104h131l35 112h-111v104h144l59 189h120l-59 -189h155l59 189h120l-59 -189h102v-104h-135zM319 388l-35 -112h155l35 112h-155z" />
<glyph unicode="$" horiz-adv-x="701" d="M635 188q0 -91 -63 -145t-173 -57v-74h-87v81q-89 17 -144 78v-71h-112v222h112q36 -50 68 -78t76 -40v185l-39 7q-100 15 -150.5 65t-50.5 129q0 91 64.5 146.5t175.5 58.5v78h87v-85q77 -17 123 -67v59h103v-201h-110q-43 79 -116 102v-192l24 -4q212 -35 212 -197z M198 496q0 -39 28 -61t86 -32v188q-55 -4 -84.5 -28.5t-29.5 -66.5zM399 275v-179q51 4 81.5 27t30.5 59q0 75 -107 92z" />
<glyph unicode="%" horiz-adv-x="1126" d="M298 695q84 0 140 -54t56 -139q0 -87 -56 -141.5t-140 -54.5t-140.5 54.5t-56.5 141.5q0 85 56.5 139t140.5 54zM372 -11l-53 36l425 665l53 -34zM298 389q46 0 77.5 31.5t31.5 81.5q0 48 -31.5 79t-77.5 31t-78 -31t-32 -79q0 -50 31.5 -81.5t78.5 -31.5zM828 374 q84 0 140.5 -54.5t56.5 -139.5q0 -87 -56 -141t-141 -54q-84 0 -140 54.5t-56 140.5q0 85 56 139.5t140 54.5zM828 68q47 0 78.5 31.5t31.5 80.5t-31.5 80t-78.5 31q-46 0 -77.5 -31t-31.5 -80t31.5 -80.5t77.5 -31.5z" />
<glyph unicode="&#x26;" horiz-adv-x="756" d="M634 286l-67 -133l137 -111v-42h-152l-60 56q-83 -70 -205 -70q-113 0 -182 58t-69 152q0 60 32 107.5t89 75.5q-50 61 -50 126q0 83 57.5 136.5t143.5 53.5q73 0 121 -40v25h103v-181h-103q-28 93 -105 93q-44 0 -70.5 -25t-26.5 -65q0 -42 32 -82.5t109 -104.5l117 -95 l31 66h-64v105h271v-105h-89zM287 88q72 0 128 40l-148 138l-40 38q-79 -37 -79 -107q0 -45 40 -77t99 -32z" />
<glyph unicode="'" horiz-adv-x="188" d="M148 680v-276h-108v276h108z" />
<glyph unicode="(" horiz-adv-x="363" d="M264 736l75 -75q-84 -86 -124.5 -167.5t-40.5 -191.5t40.5 -192t124.5 -167l-75 -75q-208 177 -208 434q0 255 208 434z" />
<glyph unicode=")" horiz-adv-x="354" d="M24 661l75 75q208 -179 208 -434q0 -257 -208 -434l-75 75q84 85 124.5 167t40.5 192t-40.5 191.5t-124.5 167.5z" />
<glyph unicode="*" horiz-adv-x="424" d="M372 467l-32 -57l-95 58v-101h-67v101l-95 -58l-32 57l98 59l-98 59l32 58l95 -58v100h67v-100l95 58l32 -58l-97 -59z" />
<glyph unicode="+" horiz-adv-x="685" d="M398 277v-177h-111v177h-183v106h183v177h111v-177h183v-106h-183z" />
<glyph unicode="," horiz-adv-x="212" d="M26 -114l53 118q-48 19 -48 64q0 31 22.5 52.5t54.5 21.5t55 -21.5t23 -52.5q0 -25 -25 -71l-59 -111h-76z" />
<glyph unicode="-" horiz-adv-x="490" d="M417 205v115h-344v-115h344z" />
<glyph unicode="." horiz-adv-x="209" d="M104 -9q-32 0 -55 22t-23 54q0 31 23 53t55 22t55.5 -22t23.5 -53q0 -33 -23 -54.5t-56 -21.5z" />
<glyph unicode="/" horiz-adv-x="405" d="M131 -160h-111l254 890h111z" />
<glyph unicode="0" horiz-adv-x="706" d="M353 695q141 0 223.5 -99.5t82.5 -255.5t-82.5 -255.5t-223.5 -99.5t-223.5 99.5t-82.5 255.5t82.5 255.5t223.5 99.5zM354 95q87 0 135 68.5t48 176.5t-48 176.5t-135 68.5q-88 0 -136 -68.5t-48 -176.5t48 -176.5t136 -68.5z" />
<glyph unicode="1" horiz-adv-x="516" d="M508 106v-106h-466v106h179v446l-170 -54v102l221 80h69v-574h167z" />
<glyph unicode="2" horiz-adv-x="597" d="M542 106v-106h-488v62l2 1l226 222q63 61 90.5 106t27.5 88q0 48 -30.5 80.5t-85.5 32.5q-53 0 -86.5 -31t-33.5 -82h-110q0 96 65 156t169 60q105 0 168.5 -60t63.5 -152q0 -63 -33 -122t-109 -134l-124 -121h288z" />
<glyph unicode="3" horiz-adv-x="569" d="M519 599l-181 -186q94 -11 148.5 -63.5t54.5 -139.5q0 -100 -69.5 -162.5t-183.5 -62.5q-105 0 -176 53.5t-86 147.5h116q13 -45 50 -72t96 -27q64 0 102.5 33t38.5 87q0 53 -37 80t-102 27l-84 -1l-37 76l181 188h-282v103h451v-81z" />
<glyph unicode="4" horiz-adv-x="655" d="M502 189v-83h76v-106h-317v106h126v83h-353v74l195 417h122l-176 -388h212v151h115v-151h94v-103h-94z" />
<glyph unicode="5" horiz-adv-x="607" d="M204 433h100q112 0 181 -59.5t69 -159.5q0 -101 -70 -165t-182 -64v102q62 0 101 35.5t39 90.5q0 53 -38 85.5t-100 32.5h-210v349h428v-106h-318v-141zM39 186h116q30 -99 146 -99v-102q-110 0 -178.5 54t-83.5 147z" />
<glyph unicode="6" horiz-adv-x="617" d="M306 463h4q113 0 186 -67t73 -169q0 -104 -73.5 -173t-186.5 -69q-114 0 -187.5 69t-73.5 170q0 72 61 169l98 -67q-44 -62 -44 -107q0 -57 41.5 -97.5t104.5 -40.5t104 41t41 98q0 58 -41 98.5t-104 40.5q-60 0 -99 -31l-2 -2l-99 67l212 287h139z" />
<glyph unicode="7" horiz-adv-x="524" d="M492 680v-81l-264 -599h-134l259 574h-339v106h478z" />
<glyph unicode="8" horiz-adv-x="626" d="M465 359q113 -53 113 -169q0 -91 -72 -148t-193 -57t-193 57t-72 148q0 116 113 169q-86 48 -86 144q0 85 66.5 138.5t171.5 53.5q104 0 170.5 -53.5t66.5 -138.5q0 -96 -85 -144zM313 601q-53 0 -87 -30t-34 -75q0 -46 34 -76t87 -30t87 30.5t34 75.5t-34 75t-87 30z M313 86q58 0 96 33t38 82q0 47 -37.5 78.5t-96.5 31.5t-96.5 -31t-37.5 -79q0 -49 37.5 -82t96.5 -33z" />
<glyph unicode="9" horiz-adv-x="617" d="M308 695q114 0 187.5 -69t73.5 -170q0 -72 -61 -169l-98 67q44 62 44 107q0 57 -41.5 97.5t-104.5 40.5t-104 -41t-41 -98q0 -58 41 -98.5t104 -40.5q60 0 99 31l2 2l99 -67l-212 -287h-139l154 217h-4q-113 0 -186 67t-73 169q0 104 73.5 173t186.5 69z" />
<glyph unicode=":" horiz-adv-x="209" d="M104 332q-32 0 -55 22t-23 54q0 31 23 53t55 22t55.5 -22t23.5 -53q0 -33 -23 -54.5t-56 -21.5zM104 -9q-32 0 -55 22t-23 54q0 31 23 53t55 22t55.5 -22t23.5 -53q0 -33 -23 -54.5t-56 -21.5z" />
<glyph unicode=";" horiz-adv-x="210" d="M105 332q-32 0 -55 22t-23 54q0 31 23 53t55 22t55.5 -22t23.5 -53q0 -33 -23 -54.5t-56 -21.5zM23 -114l53 118q-48 19 -48 64q0 31 22.5 52.5t54.5 21.5t55 -21.5t23 -52.5q0 -25 -25 -71l-59 -111h-76z" />
<glyph unicode="&#x3c;" horiz-adv-x="545" d="M474 555v-115l-294 -135l294 -135v-116l-422 193v115z" />
<glyph unicode="=" horiz-adv-x="691" d="M586 369h-482v107h482v-107zM586 171h-482v106h482v-106z" />
<glyph unicode="&#x3e;" horiz-adv-x="545" d="M493 247l-422 -193v116l294 135l-294 135v115l422 -193v-115z" />
<glyph unicode="?" horiz-adv-x="534" d="M183 207l-9 155h74q53 0 88.5 31.5t35.5 82.5q0 50 -31.5 81.5t-82.5 31.5q-45 0 -76.5 -25t-37.5 -67h-116q8 89 67 142t158 53t165 -60t66 -155q0 -82 -53 -134t-144 -60l-5 -76h-99zM235 -9q-32 0 -55 22t-23 54q0 31 23 53t55 22t55.5 -22t23.5 -53q0 -33 -23 -54.5 t-56 -21.5z" />
<glyph unicode="@" horiz-adv-x="997" d="M701 397v-191q0 -91 63 -91q85 0 85 131q0 146 -98.5 241.5t-246.5 95.5t-251 -99.5t-103 -243.5t102.5 -243t245.5 -99q126 0 221 75l46 -71q-114 -85 -265 -85q-181 0 -308.5 121t-127.5 302q0 180 127.5 302t312.5 122t307 -117.5t122 -298.5q0 -99 -41.5 -159 t-127.5 -60q-100 0 -139 66q-56 -66 -149 -66q-86 0 -144 60t-58 147q0 89 59.5 148.5t150.5 59.5q36 0 77 -7t64.5 -13.5t76.5 -22.5zM492 121q71 0 109 62q-2 30 -2 46v104q-73 21 -107 21q-45 0 -79.5 -32.5t-34.5 -84.5t34 -84t80 -32z" />
<glyph unicode="A" horiz-adv-x="803" d="M796 106v-106h-303v106h100l-46 101h-300l-45 -101h91v-106h-286v106h67l218 468h-100v106h262l265 -574h77zM500 309l-104 228l-103 -228h207z" />
<glyph unicode="B" horiz-adv-x="712" d="M542 352q65 -13 98.5 -58t33.5 -106q0 -86 -66 -137t-179 -51h-382v106h86v468h-86v106h369q107 0 167 -47t60 -127q0 -55 -27.5 -96.5t-73.5 -57.5zM253 574v-181h155q61 0 91.5 25t30.5 69q0 87 -122 87h-155zM253 106h173q64 0 97 26.5t33 68.5q0 84 -119 84h-184 v-179z" />
<glyph unicode="C" horiz-adv-x="802" d="M625 264h124q-23 -125 -116.5 -201.5t-221.5 -76.5q-150 0 -257 101.5t-107 252.5t105 252.5t251 101.5q145 0 229 -84v70h112v-264h-112q-19 76 -80 119.5t-142 43.5q-101 0 -169 -67t-68 -172q0 -104 68.5 -171.5t169.5 -67.5q80 0 137.5 43.5t76.5 119.5z" />
<glyph unicode="D" horiz-adv-x="797" d="M47 680h341q156 0 259 -96t103 -241q0 -148 -103 -245.5t-259 -97.5h-341v106h86v468h-86v106zM253 111h135q101 0 170.5 67t69.5 165q0 96 -69.5 161t-170.5 65h-135v-458z" />
<glyph unicode="E" horiz-adv-x="670" d="M626 680v-228h-108v117h-265v-178h229v-111h-229v-169h265v117h108v-228h-579v106h86v468h-86v106h579z" />
<glyph unicode="F" horiz-adv-x="666" d="M627 680v-228h-108v117h-266v-196h254v-111h-254v-156h111v-106h-317v106h86v468h-86v106h580z" />
<glyph unicode="G" horiz-adv-x="817" d="M750 373v-373h-94l-5 103q-91 -117 -251 -117q-152 0 -252.5 102.5t-100.5 251.5q0 151 105.5 252.5t252.5 101.5t229 -88v74h112v-255h-113q-19 70 -80 112t-141 42q-102 0 -170.5 -67t-68.5 -172q0 -100 66 -169t167 -69q82 0 142 46.5t81 121.5h-228v103h349z" />
<glyph unicode="H" horiz-adv-x="844" d="M711 574v-468h85v-106h-291v106h86v173h-338v-173h85v-106h-291v106h86v468h-86v106h291v-106h-85v-187h338v187h-86v106h291v-106h-85z" />
<glyph unicode="I" horiz-adv-x="385" d="M253 574v-468h85v-106h-291v106h86v468h-86v106h291v-106h-85z" />
<glyph unicode="J" horiz-adv-x="666" d="M659 574h-86v-319q0 -122 -75 -196t-200 -74q-121 0 -193 74.5t-72 197.5h121q0 -73 40.5 -116.5t111.5 -43.5q67 0 106 43t39 115v319h-230v106h438v-106z" />
<glyph unicode="K" horiz-adv-x="845" d="M821 106v-106h-351v106h75l-154 202l-136 -125v-77h87v-106h-295v106h88v468h-88v106h295v-106h-87v-244l281 244h-87v106h337v-106h-104l-204 -187l215 -281h128z" />
<glyph unicode="L" horiz-adv-x="658" d="M613 228v-228h-566v106h86v468h-86v106h333v-106h-127v-466h244v120h116z" />
<glyph unicode="M" horiz-adv-x="964" d="M831 574v-468h86v-106h-292v106h85v308l-191 -305h-73l-194 309l1 -312h86v-106h-292v106h86v468h-84v106h161l272 -421l272 421h163v-106h-86z" />
<glyph unicode="N" horiz-adv-x="845" d="M819 574h-85v-574h-94l-387 457v-351h85v-106h-291v106h86v468h-86v106h168l399 -476v370h-86v106h291v-106z" />
<glyph unicode="O" horiz-adv-x="802" d="M401 694q147 0 250.5 -103.5t103.5 -250.5t-103.5 -250.5t-250.5 -103.5t-250.5 103.5t-103.5 250.5t103.5 250.5t250.5 103.5zM402 98q98 0 165 70.5t67 171.5t-67 171.5t-165 70.5q-99 0 -166 -70.5t-67 -171.5t67 -171.5t166 -70.5z" />
<glyph unicode="P" horiz-adv-x="680" d="M47 680h341q121 0 195 -64.5t74 -170.5q0 -111 -78.5 -178.5t-207.5 -67.5h-118v-93h106v-106h-312v106h86v468h-86v106zM253 309h131q70 0 112.5 37.5t42.5 98.5q0 56 -42.5 90t-112.5 34h-131v-260z" />
<glyph unicode="Q" horiz-adv-x="802" d="M401 694q147 0 250.5 -103.5t103.5 -250.5t-103.5 -250.5t-250.5 -103.5t-250.5 103.5t-103.5 250.5t103.5 250.5t250.5 103.5zM402 98q98 0 165 70.5t67 171.5t-67 171.5t-165 70.5q-99 0 -166 -70.5t-67 -171.5t67 -171.5t166 -70.5zM746 -95l-15 -114q-174 29 -327 78 l11 87z" />
<glyph unicode="R" horiz-adv-x="756" d="M746 106v-106h-256v101l-107 131h-130v-126h90v-106h-296v106h86v468h-86v106h354q116 0 186.5 -62.5t70.5 -165.5q0 -72 -38 -124.5t-106 -77.5l119 -144h113zM253 335h148q63 0 101 31.5t38 85.5q0 53 -38.5 85t-100.5 32h-148v-234z" />
<glyph unicode="S" horiz-adv-x="680" d="M318 402l105 -17q212 -35 212 -197q0 -94 -66.5 -148t-182.5 -54q-143 0 -218 85v-71h-112v222h112q48 -67 93 -96.5t123 -29.5q57 0 92 23.5t35 62.5q0 75 -107 92l-131 22q-100 15 -150.5 65t-50.5 129q0 94 67 149.5t183 55.5q132 0 200 -74v59h103v-201h-110 q-62 112 -187 112q-62 0 -96 -25t-34 -70q0 -40 29.5 -62t90.5 -32z" />
<glyph unicode="T" horiz-adv-x="696" d="M663 680v-228h-108v117h-147v-463h114v-106h-348v106h114v463h-147v-117h-108v228h630z" />
<glyph unicode="U" horiz-adv-x="803" d="M788 574h-86v-272q0 -145 -82 -231t-219 -86q-136 0 -218 86t-82 231v272h-86v106h291v-106h-85v-272q0 -91 49.5 -148t130.5 -57t131.5 57t50.5 148v272h-86v106h291v-106z" />
<glyph unicode="V" horiz-adv-x="850" d="M835 574h-80l-273 -578h-114l-273 578h-80v106h334v-106h-117l193 -418l193 418h-117v106h334v-106z" />
<glyph unicode="W" horiz-adv-x="1121" d="M1031 574l-190 -576v-2h-119v1l-161 467l-162 -468h-118l-191 578h-75v106h317v-106h-116l125 -398l171 504h97l171 -502l126 396h-116v106h317v-106h-76z" />
<glyph unicode="X" horiz-adv-x="823" d="M794 106v-106h-320v106h59l-122 147l-121 -147h59v-106h-320v106h116l190 230l-187 238h-116v106h320v-106h-55l114 -148l113 148h-54v106h320v-106h-117l-187 -237l191 -231h117z" />
<glyph unicode="Y" horiz-adv-x="801" d="M464 229v-123h90v-106h-307v106h90v123l-219 345h-103v106h330v-106h-90l145 -230l144 230h-88v106h330v-106h-104z" />
<glyph unicode="Z" horiz-adv-x="647" d="M613 228v-228h-579v57l395 514h-269v-119h-112v228h561v-57l-398 -514h290v119h112z" />
<glyph unicode="[" horiz-adv-x="356" d="M177 -25h145v-111h-260v866h260v-111h-145v-644z" />
<glyph unicode="\" horiz-adv-x="405" d="M131 730l254 -890h-111l-254 890h111z" />
<glyph unicode="]" horiz-adv-x="353" d="M31 619v111h260v-866h-260v111h145v644h-145z" />
<glyph unicode="^" horiz-adv-x="413" d="M390 441h-106l-77 153l-78 -153h-106l132 239h103z" />
<glyph unicode="_" horiz-adv-x="634" d="M33 -100h568v-101h-568v101z" />
<glyph unicode="`" d="M445 340l294 -295l-25 -25l-294 295l-295 -295l-25 25l295 295l-295 294l25 25l295 -294l294 294l25 -25z" />
<glyph unicode="a" horiz-adv-x="647" d="M532 367v-261h76v-106h-191v33q-61 -44 -145 -44q-99 0 -168.5 72t-69.5 175t69.5 175.5t168.5 72.5q84 0 145 -44v33h191v-106h-76zM289 89q72 0 128 55v185q-56 55 -128 55q-60 0 -100 -44t-40 -104t40 -103.5t100 -43.5z" />
<glyph unicode="b" horiz-adv-x="647" d="M375 484q99 0 168.5 -72t69.5 -175t-69.5 -175.5t-168.5 -72.5q-83 0 -146 45v-34h-190v106h75v498h-75v106h190v-271q63 45 146 45zM357 89q60 0 100 43.5t40 104.5q0 60 -40 103.5t-100 43.5q-72 0 -128 -56v-183q56 -56 128 -56z" />
<glyph unicode="c" horiz-adv-x="563" d="M410 177h118q-12 -85 -75 -136.5t-158 -51.5q-113 0 -187 70t-74 177t71.5 176.5t180.5 69.5q79 0 132 -44v35h107v-177h-112q-10 38 -42 60.5t-76 22.5q-62 0 -104 -41.5t-42 -101.5t42 -101.5t104 -41.5q43 0 74 23t41 61z" />
<glyph unicode="d" horiz-adv-x="645" d="M608 106v-106h-191v34q-61 -45 -145 -45q-99 0 -168.5 72.5t-69.5 175.5t69.5 175t168.5 72q84 0 145 -44v164h-76v106h191v-604h76zM289 89q72 0 128 55v181q-55 59 -128 59q-60 0 -100 -43.5t-40 -103.5t40 -104t100 -44z" />
<glyph unicode="e" horiz-adv-x="551" d="M517 244q0 -35 -3 -53h-1h-363q12 -47 47 -75.5t93 -28.5q69 0 96 44h123q-20 -66 -81 -106t-142 -40q-111 0 -181.5 72t-70.5 179q0 106 70 177t177 71q104 0 170 -67t66 -173zM284 393q-53 0 -87.5 -31t-46.5 -80h257q-8 50 -40 80.5t-83 30.5z" />
<glyph unicode="f" horiz-adv-x="442" d="M258 473h179v-106h-179v-261h114v-106h-305v106h76v261h-133v106h133v78q0 95 52.5 151.5t139.5 56.5q53 0 109 -15l-16 -95q-43 9 -71 9q-46 0 -72.5 -28t-26.5 -79v-78z" />
<glyph unicode="g" horiz-adv-x="650" d="M536 367v-396h1q0 -102 -70 -164t-178 -62q-101 0 -168.5 55t-76.5 142h117q6 -42 40 -67t86 -25q59 0 96.5 32.5t37.5 88.5v65q-63 -47 -146 -47q-103 0 -172 71.5t-69 175.5t69 176t172 72q83 0 146 -47v36h191v-106h-76zM291 89q84 0 130 73v149q-46 73 -130 73 q-63 0 -102.5 -43.5t-39.5 -104.5q0 -60 39.5 -103.5t102.5 -43.5z" />
<glyph unicode="h" horiz-adv-x="683" d="M659 106v-106h-267v106h75v148q0 62 -30.5 95.5t-85.5 33.5q-67 0 -122 -69v-208h77v-106h-267v106h75v498h-75v106h190v-276q64 54 146 54q94 0 151 -62t57 -165v-155h76z" />
<glyph unicode="i" horiz-adv-x="342" d="M172 553q-33 0 -56 22t-23 54q0 33 23 55t56 22t55.5 -22t22.5 -55q0 -32 -23 -54t-55 -22zM306 106v-106h-267v106h75v261h-75v106h190v-367h77z" />
<glyph unicode="j" horiz-adv-x="301" d="M178 553q-33 0 -56 22t-23 54q0 33 23 55t56 22t55.5 -22t22.5 -55q0 -32 -22.5 -54t-55.5 -22zM236 473v-508q0 -96 -34 -143.5t-130 -79.5l-44 94q55 25 74 48t19 71v412h-104v106h219z" />
<glyph unicode="k" horiz-adv-x="691" d="M673 106v-106h-220v75l-116 144l-108 -87v-26h85v-106h-275v106h75v498h-75v106h190v-456l156 124v95h242v-106h-106l-97 -78l147 -183h102z" />
<glyph unicode="l" horiz-adv-x="342" d="M306 106v-106h-267v106h75v498h-75v106h190v-604h77z" />
<glyph unicode="m" horiz-adv-x="995" d="M971 106v-106h-267v106h75v148q0 62 -30 95.5t-84 33.5q-64 0 -109 -65q6 -27 6 -57v-155h76v-106h-267v106h75v148q0 62 -29.5 95.5t-84.5 33.5q-57 0 -103 -64v-213h77v-106h-267v106h75v261h-75v106h190v-34q51 49 127 49q97 0 155 -72q75 72 178 72q88 0 146.5 -63 t58.5 -164v-155h77z" />
<glyph unicode="n" horiz-adv-x="683" d="M659 106v-106h-267v106h75v148q0 62 -30.5 95.5t-85.5 33.5q-67 0 -122 -69v-208h77v-106h-267v106h75v261h-75v106h190v-39q64 54 146 54q94 0 151 -62t57 -165v-155h76z" />
<glyph unicode="o" horiz-adv-x="580" d="M290 484q108 0 182 -71t74 -177q0 -107 -74 -179t-182 -72q-109 0 -182.5 71.5t-73.5 179.5q0 107 73.5 177.5t182.5 70.5zM291 90q60 0 100 42.5t40 103.5q0 60 -40 101.5t-100 41.5q-61 0 -101 -41t-40 -102t40 -103.5t101 -42.5z" />
<glyph unicode="p" horiz-adv-x="647" d="M375 484q99 0 168.5 -72.5t69.5 -175.5t-69.5 -175t-168.5 -72q-83 0 -146 45v-135h110v-106h-300v106h75v468h-75v106h190v-34q63 45 146 45zM357 89q60 0 100 43.5t40 103.5q0 61 -40 104.5t-100 43.5q-72 0 -128 -56v-183q56 -56 128 -56z" />
<glyph unicode="q" horiz-adv-x="645" d="M609 -101v-106h-300v106h108v134q-61 -44 -145 -44q-99 0 -168.5 72t-69.5 175t69.5 175.5t168.5 72.5q84 0 145 -44v33h191v-106h-76v-468h77zM289 89q72 0 128 55v185q-56 55 -128 55q-60 0 -100 -44t-40 -104t40 -103.5t100 -43.5z" />
<glyph unicode="r" horiz-adv-x="437" d="M423 481v-118q-109 -4 -194 -34v-223h118v-106h-308v106h75v261h-75v106h190v-51q82 59 194 59z" />
<glyph unicode="s" horiz-adv-x="545" d="M256 296l95 -16q65 -11 107.5 -46.5t42.5 -100.5q0 -68 -48.5 -108t-133.5 -40q-101 0 -170 58v-43h-105v163l105 -1l1 1q37 -44 71.5 -66t84.5 -22q78 0 78 51q0 43 -61 54l-86 14q-174 31 -174 149q0 69 53.5 107t139.5 38q83 0 129 -44v31h104v-146h-104 q-34 38 -60.5 54.5t-66.5 16.5q-37 0 -55.5 -14t-18.5 -35q0 -42 72 -55z" />
<glyph unicode="t" horiz-adv-x="458" d="M418 104l16 -99q-65 -20 -118 -20q-84 0 -133.5 53t-49.5 144v185h-116v106h116v147h115v-147h167v-106h-167v-185q0 -90 91 -90q38 0 79 12z" />
<glyph unicode="u" horiz-adv-x="666" d="M638 106v-106h-192v39q-65 -54 -146 -54q-93 0 -150 62t-57 165v155h-76v106h191v-254q0 -61 31 -95t85 -34q67 0 122 69v208h-75v106h190v-367h77z" />
<glyph unicode="v" horiz-adv-x="620" d="M608 367h-60l-182 -367h-112l-182 367h-61v106h260v-106h-68l107 -232l107 232h-69v106h260v-106z" />
<glyph unicode="w" horiz-adv-x="812" d="M801 367h-52l-144 -367h-101l-98 289l-99 -289h-99l-144 367h-52v106h234v-106h-65l76 -205l108 311h81l109 -313l77 207h-65v106h234v-106z" />
<glyph unicode="x" horiz-adv-x="613" d="M381 239l-2 -2l108 -131h103v-106h-236v97l-47 59l-48 -59v-97h-236v106h102l107 131l-2 2l-105 128h-102v106h236v-99l46 -59l49 62v96h236v-106h-103z" />
<glyph unicode="y" horiz-adv-x="656" d="M573 367l-242 -468h55v-106h-305v106h124l54 105l-178 363h-70v106h260v-106h-61l113 -236l120 236h-58v106h260v-106h-72z" />
<glyph unicode="z" horiz-adv-x="522" d="M486 178v-178h-445v68l283 308h-177v-73h-108v170h437v-76h1l-276 -300h177v81h108z" />
<glyph unicode="{" horiz-adv-x="354" d="M233 561v-143q0 -51 -15 -77t-59 -40q44 -14 59 -39.5t15 -76.5v-144q0 -32 23.5 -51.5t62.5 -19.5v-113q-90 0 -145.5 51t-55.5 133v140q0 44 -18 56.5t-68 12.5v102q50 0 68 12.5t18 56.5v140q0 82 55.5 133t145.5 51v-113q-39 0 -62.5 -19.5t-23.5 -51.5z" />
<glyph unicode="|" horiz-adv-x="319" d="M214 730v-890h-108v890h108z" />
<glyph unicode="}" horiz-adv-x="367" d="M134 418v143q0 32 -23.5 51.5t-62.5 19.5v113q90 0 145.5 -51t55.5 -133v-140q0 -44 18 -56.5t68 -12.5v-102q-50 0 -68 -12.5t-18 -56.5v-140q0 -82 -55.5 -133t-145.5 -51v113q39 0 62.5 19.5t23.5 51.5v144q0 51 15 76.5t59 39.5q-44 14 -59 40t-15 77z" />
<glyph unicode="~" horiz-adv-x="445" d="M318 404h102q0 -48 -19 -81t-47 -46t-59.5 -12t-57.5 16l-56 34q-28 14 -41.5 4t-13.5 -34h-101q0 48 19 81t47 46t59.5 12.5t57.5 -15.5l55 -35q28 -14 41.5 -3.5t13.5 33.5z" />
<glyph unicode="&#xa1;" horiz-adv-x="282" d="M141 333q-32 0 -55 22t-23 53q0 32 23 54t55 22q33 0 56 -21.5t23 -54.5q0 -31 -23.5 -53t-55.5 -22zM72 -205v99l26 371h85l26 -371v-99h-137z" />
<glyph unicode="&#xa2;" horiz-adv-x="571" d="M410 177h118q-11 -79 -66.5 -129.5t-140.5 -57.5v-78h-70v80q-96 14 -156.5 81t-60.5 163q0 97 60.5 165t156.5 79v86h70v-86q58 -9 97 -42v35h107v-177h-112q-8 32 -33 53.5t-59 27.5v-282q34 7 57.5 28.5t31.5 53.5zM149 236q0 -48 28.5 -85.5t73.5 -51.5v274 q-45 -14 -73.5 -51.5t-28.5 -85.5z" />
<glyph unicode="&#xa3;" horiz-adv-x="615" d="M565 211v-211h-531v74q64 88 69 202h-69v101h55q-12 50 -12 79q0 107 67.5 173t177.5 66q100 0 162 -55.5t73 -149.5h-117q-20 103 -118 103q-59 0 -94.5 -33.5t-35.5 -94.5q0 -32 15 -88h193v-101h-183q-9 -93 -59 -175h291v110h116z" />
<glyph unicode="&#xa5;" horiz-adv-x="772" d="M682 574l-167 -265h109v-68h-152l-8 -12v-18h160v-67h-160v-38h90v-106h-307v106h90v38h-189v67h189v18l-8 12h-181v68h138l-168 265h-103v106h330v-106h-90l145 -230l144 230h-88v106h330v-106h-104z" />
<glyph unicode="&#xa6;" horiz-adv-x="319" d="M214 336h-108v394h108v-394zM214 -160h-108v394h108v-394z" />
<glyph unicode="&#xa7;" horiz-adv-x="544" d="M511 228q0 -85 -75 -124q31 -43 31 -99q0 -76 -48.5 -120.5t-121.5 -44.5q-74 0 -128 44v-33h-103v174h106q39 -81 98 -81q34 0 56 17.5t22 47.5q0 48 -60 74l-115 54q-77 35 -108.5 74.5t-31.5 91.5q0 85 75 124q-31 43 -31 99q0 75 52.5 119.5t124.5 44.5q64 0 107 -30 v20h103v-174h-103q-26 81 -88 81q-33 0 -54.5 -18t-21.5 -47q0 -47 59 -74l115 -54q77 -36 108.5 -75.5t31.5 -90.5zM348 171l3 -1q20 5 32 20.5t12 35.5q0 41 -75 76l-124 58l-2 1q-45 -12 -45 -57q0 -41 75 -76z" />
<glyph unicode="&#xa8;" horiz-adv-x="600" d="M196 701q30 0 51.5 -20.5t21.5 -50.5q0 -29 -21.5 -49.5t-51.5 -20.5t-51.5 20.5t-21.5 49.5q0 30 21.5 50.5t51.5 20.5zM404 701q30 0 51.5 -20.5t21.5 -50.5q0 -29 -21.5 -49.5t-51.5 -20.5t-51.5 20.5t-21.5 49.5q0 30 21.5 50.5t51.5 20.5z" />
<glyph unicode="&#xa9;" horiz-adv-x="840" d="M420 695q150 0 257 -102t107 -253t-107 -253t-257 -102t-257 102t-107 253t107 253t257 102zM419 48q120 0 208 85t88 207t-88 207t-208 85t-207.5 -85t-87.5 -207t87.5 -207t207.5 -85zM421 249q27 0 48.5 14t29.5 37h90q-11 -60 -57.5 -96t-109.5 -36q-75 0 -125 48.5 t-50 121.5t49 122t117 49q47 0 86 -27v21h83v-126h-83q-25 50 -78 50q-37 0 -62.5 -25.5t-25.5 -63.5q0 -37 25.5 -63t62.5 -26z" />
<glyph unicode="&#xaa;" horiz-adv-x="390" d="M369 438v-68h-117v16q-41 -22 -89 -22q-60 0 -96 27t-36 74q0 44 32.5 67.5t89.5 23.5h99v11h1q0 61 -66 61q-26 0 -44 -11.5t-21 -33.5h-77q3 55 45 83.5t97 28.5q65 0 103.5 -35t38.5 -93h-1v-129h41zM105 469q0 -17 15.5 -29.5t46.5 -12.5q46 0 85 27v45h-104 q-20 0 -31.5 -8.5t-11.5 -21.5z" />
<glyph unicode="&#xab;" horiz-adv-x="451" d="M142 252l78 -124v-29h-77l-113 153l113 153h77v-29zM325 252l78 -124v-29h-77l-113 153l113 153h77v-29z" />
<glyph unicode="&#xae;" horiz-adv-x="566" d="M283 692q103 0 176.5 -70t73.5 -174q0 -103 -73.5 -173t-176.5 -70t-176.5 70t-73.5 173q0 104 73.5 174t176.5 70zM282 248q82 0 142 58.5t60 141.5t-60 142.5t-142 59.5t-141.5 -59.5t-59.5 -142.5t59.5 -141.5t141.5 -58.5zM374 389h35v-45h-86v39l-17 26h-10h-44v-20 h1v-45h-84v45h32v134h-32v45h129q39 0 64.5 -22.5t25.5 -58.5q0 -44 -36 -65zM253 456h45q38 0 38 32q0 14 -10.5 22.5t-27.5 8.5h-45v-63z" />
<glyph unicode="&#xaf;" d="M445 340l294 -295l-25 -25l-294 295l-295 -295l-25 25l295 295l-295 294l25 25l295 -294l294 294l25 -25z" />
<glyph unicode="&#xb0;" horiz-adv-x="387" d="M193 695q75 0 124 -48t49 -120q0 -73 -49 -121t-124 -48t-124 48t-49 121q0 72 49 120t124 48zM193 434q39 0 67 27.5t28 65.5t-28 65t-67 27q-38 0 -66 -27.5t-28 -64.5q0 -38 28 -65.5t66 -27.5z" />
<glyph unicode="&#xb1;" horiz-adv-x="685" d="M580 322h-182v-137h-111v137h-183v107h183v138h111v-138h182v-107zM580 142v-107h-476v107h476z" />
<glyph unicode="&#xb2;" d="M445 340l294 -295l-25 -25l-294 295l-295 -295l-25 25l295 295l-295 294l25 25l295 -294l294 294l25 -25z" />
<glyph unicode="&#xb3;" d="M445 340l294 -295l-25 -25l-294 295l-295 -295l-25 25l295 295l-295 294l25 25l295 -294l294 294l25 -25z" />
<glyph unicode="&#xb4;" d="M445 340l294 -295l-25 -25l-294 295l-295 -295l-25 25l295 295l-295 294l25 25l295 -294l294 294l25 -25z" />
<glyph unicode="&#xb6;" horiz-adv-x="814" d="M784 574h-87v-734h-119v737h-98v-737h-120v372h-82q-108 0 -181 67t-73 173q0 101 73 164.5t181 63.5h506v-106zM361 577h-82q-61 0 -99 -35t-38 -91q0 -58 38 -94t99 -36h82v256z" />
<glyph unicode="&#xb7;" horiz-adv-x="209" d="M104 208q-32 0 -55 22t-23 54q0 31 23 53t55 22t55.5 -22t23.5 -53q0 -33 -23 -54.5t-56 -21.5z" />
<glyph unicode="&#xb8;" d="M445 340l294 -295l-25 -25l-294 295l-295 -295l-25 25l295 295l-295 294l25 25l295 -294l294 294l25 -25z" />
<glyph unicode="&#xb9;" d="M445 340l294 -295l-25 -25l-294 295l-295 -295l-25 25l295 295l-295 294l25 25l295 -294l294 294l25 -25z" />
<glyph unicode="&#xba;" horiz-adv-x="387" d="M193 695q75 0 124 -48t49 -120q0 -73 -49 -121t-124 -48t-124 48t-49 121q0 72 49 120t124 48zM194 425q41 0 71.5 30.5t30.5 71.5t-30.5 70.5t-71.5 29.5q-42 0 -72.5 -29.5t-30.5 -70.5t30.5 -71.5t72.5 -30.5z" />
<glyph unicode="&#xbb;" horiz-adv-x="451" d="M48 405h77l113 -153l-113 -153h-77v29l78 124l-78 124v29zM231 405h77l113 -153l-113 -153h-77v29l78 124l-78 124v29z" />
<glyph unicode="&#xbc;" d="M445 340l294 -295l-25 -25l-294 295l-295 -295l-25 25l295 295l-295 294l25 25l295 -294l294 294l25 -25z" />
<glyph unicode="&#xbd;" d="M445 340l294 -295l-25 -25l-294 295l-295 -295l-25 25l295 295l-295 294l25 25l295 -294l294 294l25 -25z" />
<glyph unicode="&#xbe;" d="M445 340l294 -295l-25 -25l-294 295l-295 -295l-25 25l295 295l-295 294l25 25l295 -294l294 294l25 -25z" />
<glyph unicode="&#xbf;" horiz-adv-x="534" d="M299 550q32 0 55 -22t23 -54q0 -31 -23 -53t-55 -22t-55.5 22t-23.5 53q0 33 23 54.5t56 21.5zM351 334l9 -155h-74q-53 0 -88.5 -31.5t-35.5 -82.5q0 -50 31.5 -81.5t82.5 -31.5q45 0 76.5 25t37.5 67h116q-8 -89 -67 -142t-158 -53t-165 60t-66 155q0 82 53 134t144 60 l5 76h99z" />
<glyph unicode="&#xc0;" d="M445 340l294 -295l-25 -25l-294 295l-295 -295l-25 25l295 295l-295 294l25 25l295 -294l294 294l25 -25z" />
<glyph unicode="&#xc1;" d="M445 340l294 -295l-25 -25l-294 295l-295 -295l-25 25l295 295l-295 294l25 25l295 -294l294 294l25 -25z" />
<glyph unicode="&#xc2;" d="M445 340l294 -295l-25 -25l-294 295l-295 -295l-25 25l295 295l-295 294l25 25l295 -294l294 294l25 -25z" />
<glyph unicode="&#xc3;" d="M445 340l294 -295l-25 -25l-294 295l-295 -295l-25 25l295 295l-295 294l25 25l295 -294l294 294l25 -25z" />
<glyph unicode="&#xc4;" horiz-adv-x="803" d="M292 750q-30 0 -51.5 20.5t-21.5 49.5q0 30 21.5 50.5t51.5 20.5t51.5 -20.5t21.5 -50.5q0 -29 -21.5 -49.5t-51.5 -20.5zM500 750q-30 0 -51.5 20.5t-21.5 49.5q0 30 21.5 50.5t51.5 20.5t51.5 -20.5t21.5 -50.5q0 -29 -21.5 -49.5t-51.5 -20.5zM796 106v-106h-303v106 h100l-46 101h-300l-45 -101h91v-106h-286v106h67l218 468h-100v106h262l265 -574h77zM500 309l-104 228l-103 -228h207z" />
<glyph unicode="&#xc5;" d="M445 340l294 -295l-25 -25l-294 295l-295 -295l-25 25l295 295l-295 294l25 25l295 -294l294 294l25 -25z" />
<glyph unicode="&#xc6;" horiz-adv-x="1095" d="M1051 680v-228h-108v117h-266v-178h230v-111h-230v-169h266v117h108v-228h-579v106h85v110h-241l-75 -110h103v-106h-337v106h89l331 468h-87v106h711zM557 318v250l-171 -250h171z" />
<glyph unicode="&#xc7;" d="M445 340l294 -295l-25 -25l-294 295l-295 -295l-25 25l295 295l-295 294l25 25l295 -294l294 294l25 -25z" />
<glyph unicode="&#xc8;" d="M445 340l294 -295l-25 -25l-294 295l-295 -295l-25 25l295 295l-295 294l25 25l295 -294l294 294l25 -25z" />
<glyph unicode="&#xc9;" d="M445 340l294 -295l-25 -25l-294 295l-295 -295l-25 25l295 295l-295 294l25 25l295 -294l294 294l25 -25z" />
<glyph unicode="&#xca;" d="M445 340l294 -295l-25 -25l-294 295l-295 -295l-25 25l295 295l-295 294l25 25l295 -294l294 294l25 -25z" />
<glyph unicode="&#xcb;" d="M445 340l294 -295l-25 -25l-294 295l-295 -295l-25 25l295 295l-295 294l25 25l295 -294l294 294l25 -25z" />
<glyph unicode="&#xcc;" d="M445 340l294 -295l-25 -25l-294 295l-295 -295l-25 25l295 295l-295 294l25 25l295 -294l294 294l25 -25z" />
<glyph unicode="&#xcd;" d="M445 340l294 -295l-25 -25l-294 295l-295 -295l-25 25l295 295l-295 294l25 25l295 -294l294 294l25 -25z" />
<glyph unicode="&#xce;" d="M445 340l294 -295l-25 -25l-294 295l-295 -295l-25 25l295 295l-295 294l25 25l295 -294l294 294l25 -25z" />
<glyph unicode="&#xcf;" d="M445 340l294 -295l-25 -25l-294 295l-295 -295l-25 25l295 295l-295 294l25 25l295 -294l294 294l25 -25z" />
<glyph unicode="&#xd0;" d="M445 340l294 -295l-25 -25l-294 295l-295 -295l-25 25l295 295l-295 294l25 25l295 -294l294 294l25 -25z" />
<glyph unicode="&#xd1;" d="M445 340l294 -295l-25 -25l-294 295l-295 -295l-25 25l295 295l-295 294l25 25l295 -294l294 294l25 -25z" />
<glyph unicode="&#xd2;" d="M445 340l294 -295l-25 -25l-294 295l-295 -295l-25 25l295 295l-295 294l25 25l295 -294l294 294l25 -25z" />
<glyph unicode="&#xd3;" d="M445 340l294 -295l-25 -25l-294 295l-295 -295l-25 25l295 295l-295 294l25 25l295 -294l294 294l25 -25z" />
<glyph unicode="&#xd4;" d="M445 340l294 -295l-25 -25l-294 295l-295 -295l-25 25l295 295l-295 294l25 25l295 -294l294 294l25 -25z" />
<glyph unicode="&#xd5;" d="M445 340l294 -295l-25 -25l-294 295l-295 -295l-25 25l295 295l-295 294l25 25l295 -294l294 294l25 -25z" />
<glyph unicode="&#xd6;" horiz-adv-x="802" d="M297 891q30 0 51.5 -20.5t21.5 -50.5q0 -29 -21.5 -49.5t-51.5 -20.5t-51.5 20.5t-21.5 49.5q0 30 21.5 50.5t51.5 20.5zM505 891q30 0 51.5 -20.5t21.5 -50.5q0 -29 -21.5 -49.5t-51.5 -20.5t-51.5 20.5t-21.5 49.5q0 30 21.5 50.5t51.5 20.5zM401 694 q147 0 250.5 -103.5t103.5 -250.5t-103.5 -250.5t-250.5 -103.5t-250.5 103.5t-103.5 250.5t103.5 250.5t250.5 103.5zM402 98q98 0 165 70.5t67 171.5t-67 171.5t-165 70.5q-99 0 -166 -70.5t-67 -171.5t67 -171.5t166 -70.5z" />
<glyph unicode="&#xd7;" horiz-adv-x="677" d="M560 176l-76 -76l-145 146l-146 -146l-76 76l146 146l-146 145l76 76l146 -145l145 145l76 -76l-145 -145z" />
<glyph unicode="&#xd8;" horiz-adv-x="802" d="M716 635l-50 -60q89 -100 89 -235q0 -147 -103.5 -250.5t-250.5 -103.5q-101 0 -186 52l-50 -60l-72 60l50 59q-96 102 -96 243q0 147 103.5 250.5t250.5 103.5q107 0 195 -58l49 59zM169 340q0 -84 50 -152l303 360q-54 34 -120 34q-99 0 -166 -70.5t-67 -171.5zM402 98 q98 0 165 70.5t67 171.5q0 81 -44 144l-300 -357q50 -29 112 -29z" />
<glyph unicode="&#xd9;" d="M445 340l294 -295l-25 -25l-294 295l-295 -295l-25 25l295 295l-295 294l25 25l295 -294l294 294l25 -25z" />
<glyph unicode="&#xda;" d="M445 340l294 -295l-25 -25l-294 295l-295 -295l-25 25l295 295l-295 294l25 25l295 -294l294 294l25 -25z" />
<glyph unicode="&#xdb;" d="M445 340l294 -295l-25 -25l-294 295l-295 -295l-25 25l295 295l-295 294l25 25l295 -294l294 294l25 -25z" />
<glyph unicode="&#xdc;" horiz-adv-x="803" d="M297 750q-30 0 -51.5 20.5t-21.5 49.5q0 30 21.5 50.5t51.5 20.5t51.5 -20.5t21.5 -50.5q0 -29 -21.5 -49.5t-51.5 -20.5zM505 750q-30 0 -51.5 20.5t-21.5 49.5q0 30 21.5 50.5t51.5 20.5t51.5 -20.5t21.5 -50.5q0 -29 -21.5 -49.5t-51.5 -20.5zM788 574h-86v-272 q0 -145 -82 -231t-219 -86q-136 0 -218 86t-82 231v272h-86v106h291v-106h-85v-272q0 -91 49.5 -148t130.5 -57t131.5 57t50.5 148v272h-86v106h291v-106z" />
<glyph unicode="&#xdd;" d="M445 340l294 -295l-25 -25l-294 295l-295 -295l-25 25l295 295l-295 294l25 25l295 -294l294 294l25 -25z" />
<glyph unicode="&#xde;" horiz-adv-x="680" d="M253 582h135q122 0 195.5 -64t73.5 -170q0 -112 -78.5 -179.5t-207.5 -67.5h-118v-101h-206v106h86v468h-86v106h206v-98zM253 211h131q69 0 111.5 38t42.5 99q0 55 -42.5 89t-111.5 34h-131v-260z" />
<glyph unicode="&#xdf;" horiz-adv-x="692" d="M629 401l-144 -177q85 -11 137 -67.5t52 -140.5q0 -97 -69.5 -155t-171.5 -58q-124 0 -224 102l68 77q77 -77 149 -77q54 0 93 33t39 84q0 46 -33 75t-85 29h-115v57l144 184h-240v-261h1v-106h-191v106h75v439q0 92 56.5 149t149.5 57v-113q-41 0 -66 -25.5t-25 -67.5 v-72h399v-72h1z" />
<glyph unicode="&#xe0;" d="M445 340l294 -295l-25 -25l-294 295l-295 -295l-25 25l295 295l-295 294l25 25l295 -294l294 294l25 -25z" />
<glyph unicode="&#xe1;" d="M445 340l294 -295l-25 -25l-294 295l-295 -295l-25 25l295 295l-295 294l25 25l295 -294l294 294l25 -25z" />
<glyph unicode="&#xe2;" d="M445 340l294 -295l-25 -25l-294 295l-295 -295l-25 25l295 295l-295 294l25 25l295 -294l294 294l25 -25z" />
<glyph unicode="&#xe3;" d="M445 340l294 -295l-25 -25l-294 295l-295 -295l-25 25l295 295l-295 294l25 25l295 -294l294 294l25 -25z" />
<glyph unicode="&#xe4;" d="M445 340l294 -295l-25 -25l-294 295l-295 -295l-25 25l295 295l-295 294l25 25l295 -294l294 294l25 -25z" />
<glyph unicode="&#xe5;" d="M445 340l294 -295l-25 -25l-294 295l-295 -295l-25 25l295 295l-295 294l25 25l295 -294l294 294l25 -25z" />
<glyph unicode="&#xe6;" horiz-adv-x="879" d="M845 244q0 -35 -3 -53h-1h-363q12 -47 47 -75.5t93 -28.5q69 0 96 44h123q-20 -66 -81 -106t-142 -40q-114 0 -184 75q-97 -70 -197 -70q-91 0 -145 41t-54 111q0 66 48 100.5t132 34.5h151l4 20q-6 41 -31.5 66.5t-70.5 25.5q-39 0 -66 -17.5t-31 -49.5h-115 q5 82 67 124t145 42q111 0 167 -73q69 69 175 69q104 0 170 -67t66 -173zM612 393q-53 0 -87.5 -31t-46.5 -80h257q-8 50 -40 80.5t-83 30.5zM238 87q73 0 143 49q-11 27 -15 55h-156q-31 0 -48.5 -12.5t-17.5 -33.5q0 -25 23.5 -41.5t70.5 -16.5z" />
<glyph unicode="&#xe7;" d="M445 340l294 -295l-25 -25l-294 295l-295 -295l-25 25l295 295l-295 294l25 25l295 -294l294 294l25 -25z" />
<glyph unicode="&#xe8;" d="M445 340l294 -295l-25 -25l-294 295l-295 -295l-25 25l295 295l-295 294l25 25l295 -294l294 294l25 -25z" />
<glyph unicode="&#xe9;" d="M445 340l294 -295l-25 -25l-294 295l-295 -295l-25 25l295 295l-295 294l25 25l295 -294l294 294l25 -25z" />
<glyph unicode="&#xea;" d="M445 340l294 -295l-25 -25l-294 295l-295 -295l-25 25l295 295l-295 294l25 25l295 -294l294 294l25 -25z" />
<glyph unicode="&#xeb;" d="M445 340l294 -295l-25 -25l-294 295l-295 -295l-25 25l295 295l-295 294l25 25l295 -294l294 294l25 -25z" />
<glyph unicode="&#xec;" d="M445 340l294 -295l-25 -25l-294 295l-295 -295l-25 25l295 295l-295 294l25 25l295 -294l294 294l25 -25z" />
<glyph unicode="&#xed;" d="M445 340l294 -295l-25 -25l-294 295l-295 -295l-25 25l295 295l-295 294l25 25l295 -294l294 294l25 -25z" />
<glyph unicode="&#xee;" d="M445 340l294 -295l-25 -25l-294 295l-295 -295l-25 25l295 295l-295 294l25 25l295 -294l294 294l25 -25z" />
<glyph unicode="&#xef;" d="M445 340l294 -295l-25 -25l-294 295l-295 -295l-25 25l295 295l-295 294l25 25l295 -294l294 294l25 -25z" />
<glyph unicode="&#xf0;" horiz-adv-x="606" d="M468 617l-58 -20q153 -150 153 -361q0 -113 -73.5 -182t-185.5 -69t-186.5 71.5t-74.5 179.5q0 107 74.5 177.5t186.5 70.5q56 0 110 -31q-39 59 -106 108l-160 -57l-29 76l101 36q-51 26 -105 49l118 50q57 -25 104 -57l102 36zM303 90q63 0 103.5 42t40.5 104 q0 61 -40.5 102t-103.5 41q-64 0 -104.5 -41t-40.5 -102q0 -62 40.5 -104t104.5 -42z" />
<glyph unicode="&#xf1;" d="M445 340l294 -295l-25 -25l-294 295l-295 -295l-25 25l295 295l-295 294l25 25l295 -294l294 294l25 -25z" />
<glyph unicode="&#xf2;" d="M445 340l294 -295l-25 -25l-294 295l-295 -295l-25 25l295 295l-295 294l25 25l295 -294l294 294l25 -25z" />
<glyph unicode="&#xf3;" d="M445 340l294 -295l-25 -25l-294 295l-295 -295l-25 25l295 295l-295 294l25 25l295 -294l294 294l25 -25z" />
<glyph unicode="&#xf4;" d="M445 340l294 -295l-25 -25l-294 295l-295 -295l-25 25l295 295l-295 294l25 25l295 -294l294 294l25 -25z" />
<glyph unicode="&#xf5;" d="M445 340l294 -295l-25 -25l-294 295l-295 -295l-25 25l295 295l-295 294l25 25l295 -294l294 294l25 -25z" />
<glyph unicode="&#xf6;" horiz-adv-x="580" d="M187 701q30 0 51.5 -20.5t21.5 -50.5q0 -29 -21.5 -49.5t-51.5 -20.5t-51.5 20.5t-21.5 49.5q0 30 21.5 50.5t51.5 20.5zM395 701q30 0 51.5 -20.5t21.5 -50.5q0 -29 -21.5 -49.5t-51.5 -20.5t-51.5 20.5t-21.5 49.5q0 30 21.5 50.5t51.5 20.5zM290 484q108 0 182 -71 t74 -177q0 -107 -74 -179t-182 -72q-109 0 -182.5 71.5t-73.5 179.5q0 107 73.5 177.5t182.5 70.5zM291 90q60 0 100 42.5t40 103.5q0 60 -40 101.5t-100 41.5q-61 0 -101 -41t-40 -102t40 -103.5t101 -42.5z" />
<glyph unicode="&#xf7;" horiz-adv-x="685" d="M342 456q-28 0 -48 19t-20 47t20 47t48 19q29 0 49.5 -19t20.5 -47t-20.5 -47t-49.5 -19zM104 383h476v-106h-476v106zM342 77q-28 0 -48 19t-20 47t20 47t48 19q29 0 49.5 -19t20.5 -47t-20.5 -47t-49.5 -19z" />
<glyph unicode="&#xf8;" horiz-adv-x="580" d="M507 434l-25 -30q64 -70 64 -168q0 -107 -74 -179t-182 -72q-71 0 -131 33l-27 -32l-61 50l26 32q-63 69 -63 168q0 107 73.5 177.5t182.5 70.5q68 0 129 -32l27 32zM150 236q0 -44 22 -80l176 211q-26 12 -57 12q-61 0 -101 -41t-40 -102zM291 90q60 0 100 42.5 t40 103.5q0 42 -23 80l-178 -213q29 -13 61 -13z" />
<glyph unicode="&#xf9;" d="M445 340l294 -295l-25 -25l-294 295l-295 -295l-25 25l295 295l-295 294l25 25l295 -294l294 294l25 -25z" />
<glyph unicode="&#xfa;" d="M445 340l294 -295l-25 -25l-294 295l-295 -295l-25 25l295 295l-295 294l25 25l295 -294l294 294l25 -25z" />
<glyph unicode="&#xfb;" d="M445 340l294 -295l-25 -25l-294 295l-295 -295l-25 25l295 295l-295 294l25 25l295 -294l294 294l25 -25z" />
<glyph unicode="&#xfc;" horiz-adv-x="666" d="M227 560q-30 0 -51.5 20.5t-21.5 49.5q0 30 21.5 50.5t51.5 20.5t51.5 -20.5t21.5 -50.5q0 -29 -21.5 -49.5t-51.5 -20.5zM435 560q-30 0 -51.5 20.5t-21.5 49.5q0 30 21.5 50.5t51.5 20.5t51.5 -20.5t21.5 -50.5q0 -29 -21.5 -49.5t-51.5 -20.5zM638 106v-106h-192v39 q-65 -54 -146 -54q-93 0 -150 62t-57 165v155h-76v106h191v-254q0 -61 31 -95t85 -34q67 0 122 69v208h-75v106h190v-367h77z" />
<glyph unicode="&#xfd;" d="M445 340l294 -295l-25 -25l-294 295l-295 -295l-25 25l295 295l-295 294l25 25l295 -294l294 294l25 -25z" />
<glyph unicode="&#xfe;" horiz-adv-x="647" d="M375 484q99 0 168.5 -72.5t69.5 -175.5t-69.5 -175t-168.5 -72q-83 0 -146 45v-241h-190v106h75v675h-75v106h190v-241q63 45 146 45zM357 89q60 0 100 43.5t40 103.5q0 61 -40 104.5t-100 43.5q-72 0 -128 -56v-183q56 -56 128 -56z" />
<glyph unicode="&#xff;" d="M445 340l294 -295l-25 -25l-294 295l-295 -295l-25 25l295 295l-295 294l25 25l295 -294l294 294l25 -25z" />
<glyph unicode="&#x100;" d="M445 340l294 -295l-25 -25l-294 295l-295 -295l-25 25l295 295l-295 294l25 25l295 -294l294 294l25 -25z" />
<glyph unicode="&#x101;" d="M445 340l294 -295l-25 -25l-294 295l-295 -295l-25 25l295 295l-295 294l25 25l295 -294l294 294l25 -25z" />
<glyph unicode="&#x102;" d="M445 340l294 -295l-25 -25l-294 295l-295 -295l-25 25l295 295l-295 294l25 25l295 -294l294 294l25 -25z" />
<glyph unicode="&#x103;" d="M445 340l294 -295l-25 -25l-294 295l-295 -295l-25 25l295 295l-295 294l25 25l295 -294l294 294l25 -25z" />
<glyph unicode="&#x104;" d="M445 340l294 -295l-25 -25l-294 295l-295 -295l-25 25l295 295l-295 294l25 25l295 -294l294 294l25 -25z" />
<glyph unicode="&#x105;" d="M445 340l294 -295l-25 -25l-294 295l-295 -295l-25 25l295 295l-295 294l25 25l295 -294l294 294l25 -25z" />
<glyph unicode="&#x106;" d="M445 340l294 -295l-25 -25l-294 295l-295 -295l-25 25l295 295l-295 294l25 25l295 -294l294 294l25 -25z" />
<glyph unicode="&#x107;" d="M445 340l294 -295l-25 -25l-294 295l-295 -295l-25 25l295 295l-295 294l25 25l295 -294l294 294l25 -25z" />
<glyph unicode="&#x10a;" d="M445 340l294 -295l-25 -25l-294 295l-295 -295l-25 25l295 295l-295 294l25 25l295 -294l294 294l25 -25z" />
<glyph unicode="&#x10b;" d="M445 340l294 -295l-25 -25l-294 295l-295 -295l-25 25l295 295l-295 294l25 25l295 -294l294 294l25 -25z" />
<glyph unicode="&#x10c;" d="M445 340l294 -295l-25 -25l-294 295l-295 -295l-25 25l295 295l-295 294l25 25l295 -294l294 294l25 -25z" />
<glyph unicode="&#x10d;" d="M445 340l294 -295l-25 -25l-294 295l-295 -295l-25 25l295 295l-295 294l25 25l295 -294l294 294l25 -25z" />
<glyph unicode="&#x10e;" d="M445 340l294 -295l-25 -25l-294 295l-295 -295l-25 25l295 295l-295 294l25 25l295 -294l294 294l25 -25z" />
<glyph unicode="&#x10f;" d="M445 340l294 -295l-25 -25l-294 295l-295 -295l-25 25l295 295l-295 294l25 25l295 -294l294 294l25 -25z" />
<glyph unicode="&#x110;" d="M445 340l294 -295l-25 -25l-294 295l-295 -295l-25 25l295 295l-295 294l25 25l295 -294l294 294l25 -25z" />
<glyph unicode="&#x111;" d="M445 340l294 -295l-25 -25l-294 295l-295 -295l-25 25l295 295l-295 294l25 25l295 -294l294 294l25 -25z" />
<glyph unicode="&#x112;" d="M445 340l294 -295l-25 -25l-294 295l-295 -295l-25 25l295 295l-295 294l25 25l295 -294l294 294l25 -25z" />
<glyph unicode="&#x113;" d="M445 340l294 -295l-25 -25l-294 295l-295 -295l-25 25l295 295l-295 294l25 25l295 -294l294 294l25 -25z" />
<glyph unicode="&#x116;" d="M445 340l294 -295l-25 -25l-294 295l-295 -295l-25 25l295 295l-295 294l25 25l295 -294l294 294l25 -25z" />
<glyph unicode="&#x117;" d="M445 340l294 -295l-25 -25l-294 295l-295 -295l-25 25l295 295l-295 294l25 25l295 -294l294 294l25 -25z" />
<glyph unicode="&#x118;" d="M445 340l294 -295l-25 -25l-294 295l-295 -295l-25 25l295 295l-295 294l25 25l295 -294l294 294l25 -25z" />
<glyph unicode="&#x119;" d="M445 340l294 -295l-25 -25l-294 295l-295 -295l-25 25l295 295l-295 294l25 25l295 -294l294 294l25 -25z" />
<glyph unicode="&#x11a;" d="M445 340l294 -295l-25 -25l-294 295l-295 -295l-25 25l295 295l-295 294l25 25l295 -294l294 294l25 -25z" />
<glyph unicode="&#x11b;" d="M445 340l294 -295l-25 -25l-294 295l-295 -295l-25 25l295 295l-295 294l25 25l295 -294l294 294l25 -25z" />
<glyph unicode="&#x11e;" d="M445 340l294 -295l-25 -25l-294 295l-295 -295l-25 25l295 295l-295 294l25 25l295 -294l294 294l25 -25z" />
<glyph unicode="&#x11f;" d="M445 340l294 -295l-25 -25l-294 295l-295 -295l-25 25l295 295l-295 294l25 25l295 -294l294 294l25 -25z" />
<glyph unicode="&#x120;" d="M445 340l294 -295l-25 -25l-294 295l-295 -295l-25 25l295 295l-295 294l25 25l295 -294l294 294l25 -25z" />
<glyph unicode="&#x121;" d="M445 340l294 -295l-25 -25l-294 295l-295 -295l-25 25l295 295l-295 294l25 25l295 -294l294 294l25 -25z" />
<glyph unicode="&#x122;" d="M445 340l294 -295l-25 -25l-294 295l-295 -295l-25 25l295 295l-295 294l25 25l295 -294l294 294l25 -25z" />
<glyph unicode="&#x123;" d="M445 340l294 -295l-25 -25l-294 295l-295 -295l-25 25l295 295l-295 294l25 25l295 -294l294 294l25 -25z" />
<glyph unicode="&#x126;" d="M445 340l294 -295l-25 -25l-294 295l-295 -295l-25 25l295 295l-295 294l25 25l295 -294l294 294l25 -25z" />
<glyph unicode="&#x127;" d="M445 340l294 -295l-25 -25l-294 295l-295 -295l-25 25l295 295l-295 294l25 25l295 -294l294 294l25 -25z" />
<glyph unicode="&#x12a;" d="M445 340l294 -295l-25 -25l-294 295l-295 -295l-25 25l295 295l-295 294l25 25l295 -294l294 294l25 -25z" />
<glyph unicode="&#x12b;" d="M445 340l294 -295l-25 -25l-294 295l-295 -295l-25 25l295 295l-295 294l25 25l295 -294l294 294l25 -25z" />
<glyph unicode="&#x12e;" d="M445 340l294 -295l-25 -25l-294 295l-295 -295l-25 25l295 295l-295 294l25 25l295 -294l294 294l25 -25z" />
<glyph unicode="&#x12f;" d="M445 340l294 -295l-25 -25l-294 295l-295 -295l-25 25l295 295l-295 294l25 25l295 -294l294 294l25 -25z" />
<glyph unicode="&#x130;" d="M445 340l294 -295l-25 -25l-294 295l-295 -295l-25 25l295 295l-295 294l25 25l295 -294l294 294l25 -25z" />
<glyph unicode="&#x131;" horiz-adv-x="342" d="M306 106v-106h-267v106h75v261h-75v106h190v-367h77z" />
<glyph unicode="&#x132;" horiz-adv-x="1024" d="M338 680v-106h-85v-468h85v-106h-291v106h86v468h-86v106h291zM1017 574h-86v-319q0 -122 -75 -196t-200 -74q-121 0 -193 74.5t-72 197.5h121q0 -73 40.5 -116.5t111.5 -43.5q67 0 106 43t39 115v319h-230v106h438v-106z" />
<glyph unicode="&#x133;" horiz-adv-x="605" d="M172 553q-33 0 -56 22t-23 54q0 33 23 55t56 22t55.5 -22t22.5 -55q0 -32 -23 -54t-55 -22zM482 553q-33 0 -56 22t-23 54q0 33 23 55t56 22t55.5 -22t22.5 -55q0 -32 -22.5 -54t-55.5 -22zM229 106h77v-106h-267v106h75v261h-75v106h190v-367zM540 473v-508 q0 -96 -34 -143.5t-130 -79.5l-44 94q55 25 74 48t19 71v412h-104v106h219z" />
<glyph unicode="&#x136;" d="M445 340l294 -295l-25 -25l-294 295l-295 -295l-25 25l295 295l-295 294l25 25l295 -294l294 294l25 -25z" />
<glyph unicode="&#x137;" d="M445 340l294 -295l-25 -25l-294 295l-295 -295l-25 25l295 295l-295 294l25 25l295 -294l294 294l25 -25z" />
<glyph unicode="&#x139;" d="M445 340l294 -295l-25 -25l-294 295l-295 -295l-25 25l295 295l-295 294l25 25l295 -294l294 294l25 -25z" />
<glyph unicode="&#x13a;" d="M445 340l294 -295l-25 -25l-294 295l-295 -295l-25 25l295 295l-295 294l25 25l295 -294l294 294l25 -25z" />
<glyph unicode="&#x13b;" d="M445 340l294 -295l-25 -25l-294 295l-295 -295l-25 25l295 295l-295 294l25 25l295 -294l294 294l25 -25z" />
<glyph unicode="&#x13c;" d="M445 340l294 -295l-25 -25l-294 295l-295 -295l-25 25l295 295l-295 294l25 25l295 -294l294 294l25 -25z" />
<glyph unicode="&#x13d;" d="M445 340l294 -295l-25 -25l-294 295l-295 -295l-25 25l295 295l-295 294l25 25l295 -294l294 294l25 -25z" />
<glyph unicode="&#x13e;" d="M445 340l294 -295l-25 -25l-294 295l-295 -295l-25 25l295 295l-295 294l25 25l295 -294l294 294l25 -25z" />
<glyph unicode="&#x13f;" d="M445 340l294 -295l-25 -25l-294 295l-295 -295l-25 25l295 295l-295 294l25 25l295 -294l294 294l25 -25z" />
<glyph unicode="&#x140;" d="M445 340l294 -295l-25 -25l-294 295l-295 -295l-25 25l295 295l-295 294l25 25l295 -294l294 294l25 -25z" />
<glyph unicode="&#x141;" d="M445 340l294 -295l-25 -25l-294 295l-295 -295l-25 25l295 295l-295 294l25 25l295 -294l294 294l25 -25z" />
<glyph unicode="&#x142;" d="M445 340l294 -295l-25 -25l-294 295l-295 -295l-25 25l295 295l-295 294l25 25l295 -294l294 294l25 -25z" />
<glyph unicode="&#x143;" d="M445 340l294 -295l-25 -25l-294 295l-295 -295l-25 25l295 295l-295 294l25 25l295 -294l294 294l25 -25z" />
<glyph unicode="&#x144;" d="M445 340l294 -295l-25 -25l-294 295l-295 -295l-25 25l295 295l-295 294l25 25l295 -294l294 294l25 -25z" />
<glyph unicode="&#x145;" d="M445 340l294 -295l-25 -25l-294 295l-295 -295l-25 25l295 295l-295 294l25 25l295 -294l294 294l25 -25z" />
<glyph unicode="&#x146;" d="M445 340l294 -295l-25 -25l-294 295l-295 -295l-25 25l295 295l-295 294l25 25l295 -294l294 294l25 -25z" />
<glyph unicode="&#x147;" d="M445 340l294 -295l-25 -25l-294 295l-295 -295l-25 25l295 295l-295 294l25 25l295 -294l294 294l25 -25z" />
<glyph unicode="&#x148;" d="M445 340l294 -295l-25 -25l-294 295l-295 -295l-25 25l295 295l-295 294l25 25l295 -294l294 294l25 -25z" />
<glyph unicode="&#x14a;" d="M445 340l294 -295l-25 -25l-294 295l-295 -295l-25 25l295 295l-295 294l25 25l295 -294l294 294l25 -25z" />
<glyph unicode="&#x14b;" d="M445 340l294 -295l-25 -25l-294 295l-295 -295l-25 25l295 295l-295 294l25 25l295 -294l294 294l25 -25z" />
<glyph unicode="&#x14c;" d="M445 340l294 -295l-25 -25l-294 295l-295 -295l-25 25l295 295l-295 294l25 25l295 -294l294 294l25 -25z" />
<glyph unicode="&#x14d;" d="M445 340l294 -295l-25 -25l-294 295l-295 -295l-25 25l295 295l-295 294l25 25l295 -294l294 294l25 -25z" />
<glyph unicode="&#x150;" d="M445 340l294 -295l-25 -25l-294 295l-295 -295l-25 25l295 295l-295 294l25 25l295 -294l294 294l25 -25z" />
<glyph unicode="&#x151;" d="M445 340l294 -295l-25 -25l-294 295l-295 -295l-25 25l295 295l-295 294l25 25l295 -294l294 294l25 -25z" />
<glyph unicode="&#x152;" horiz-adv-x="1045" d="M1001 680v-228h-108v117h-266v-178h230v-111h-230v-169h266v117h108v-228h-573q-167 0 -274 96t-107 244t107 244t274 96h573zM507 112v456h-79q-119 0 -189.5 -63.5t-70.5 -164.5t70.5 -164.5t189.5 -63.5h79z" />
<glyph unicode="&#x153;" horiz-adv-x="951" d="M916 244q0 -35 -3 -53h-1h-363q12 -47 47 -75.5t93 -28.5q69 0 96 44h123q-20 -66 -81 -106t-142 -40q-126 0 -197 89q-76 -89 -198 -89q-109 0 -182.5 71.5t-73.5 179.5q0 107 73.5 177.5t182.5 70.5q122 0 198 -87q71 87 192 87q104 0 170 -67t66 -173zM683 393 q-53 0 -87.5 -31t-46.5 -80h257q-8 50 -40 80.5t-83 30.5zM291 90q60 0 100 42.5t40 103.5q0 60 -40 101.5t-100 41.5q-61 0 -101 -41t-40 -102t40 -103.5t101 -42.5z" />
<glyph unicode="&#x154;" d="M445 340l294 -295l-25 -25l-294 295l-295 -295l-25 25l295 295l-295 294l25 25l295 -294l294 294l25 -25z" />
<glyph unicode="&#x155;" d="M445 340l294 -295l-25 -25l-294 295l-295 -295l-25 25l295 295l-295 294l25 25l295 -294l294 294l25 -25z" />
<glyph unicode="&#x156;" d="M445 340l294 -295l-25 -25l-294 295l-295 -295l-25 25l295 295l-295 294l25 25l295 -294l294 294l25 -25z" />
<glyph unicode="&#x157;" d="M445 340l294 -295l-25 -25l-294 295l-295 -295l-25 25l295 295l-295 294l25 25l295 -294l294 294l25 -25z" />
<glyph unicode="&#x158;" d="M445 340l294 -295l-25 -25l-294 295l-295 -295l-25 25l295 295l-295 294l25 25l295 -294l294 294l25 -25z" />
<glyph unicode="&#x159;" d="M445 340l294 -295l-25 -25l-294 295l-295 -295l-25 25l295 295l-295 294l25 25l295 -294l294 294l25 -25z" />
<glyph unicode="&#x15a;" d="M445 340l294 -295l-25 -25l-294 295l-295 -295l-25 25l295 295l-295 294l25 25l295 -294l294 294l25 -25z" />
<glyph unicode="&#x15b;" d="M445 340l294 -295l-25 -25l-294 295l-295 -295l-25 25l295 295l-295 294l25 25l295 -294l294 294l25 -25z" />
<glyph unicode="&#x15e;" d="M445 340l294 -295l-25 -25l-294 295l-295 -295l-25 25l295 295l-295 294l25 25l295 -294l294 294l25 -25z" />
<glyph unicode="&#x15f;" d="M445 340l294 -295l-25 -25l-294 295l-295 -295l-25 25l295 295l-295 294l25 25l295 -294l294 294l25 -25z" />
<glyph unicode="&#x160;" d="M445 340l294 -295l-25 -25l-294 295l-295 -295l-25 25l295 295l-295 294l25 25l295 -294l294 294l25 -25z" />
<glyph unicode="&#x161;" d="M445 340l294 -295l-25 -25l-294 295l-295 -295l-25 25l295 295l-295 294l25 25l295 -294l294 294l25 -25z" />
<glyph unicode="&#x162;" d="M445 340l294 -295l-25 -25l-294 295l-295 -295l-25 25l295 295l-295 294l25 25l295 -294l294 294l25 -25z" />
<glyph unicode="&#x163;" d="M445 340l294 -295l-25 -25l-294 295l-295 -295l-25 25l295 295l-295 294l25 25l295 -294l294 294l25 -25z" />
<glyph unicode="&#x164;" d="M445 340l294 -295l-25 -25l-294 295l-295 -295l-25 25l295 295l-295 294l25 25l295 -294l294 294l25 -25z" />
<glyph unicode="&#x165;" d="M445 340l294 -295l-25 -25l-294 295l-295 -295l-25 25l295 295l-295 294l25 25l295 -294l294 294l25 -25z" />
<glyph unicode="&#x166;" d="M445 340l294 -295l-25 -25l-294 295l-295 -295l-25 25l295 295l-295 294l25 25l295 -294l294 294l25 -25z" />
<glyph unicode="&#x167;" d="M445 340l294 -295l-25 -25l-294 295l-295 -295l-25 25l295 295l-295 294l25 25l295 -294l294 294l25 -25z" />
<glyph unicode="&#x16a;" d="M445 340l294 -295l-25 -25l-294 295l-295 -295l-25 25l295 295l-295 294l25 25l295 -294l294 294l25 -25z" />
<glyph unicode="&#x16b;" d="M445 340l294 -295l-25 -25l-294 295l-295 -295l-25 25l295 295l-295 294l25 25l295 -294l294 294l25 -25z" />
<glyph unicode="&#x16e;" d="M445 340l294 -295l-25 -25l-294 295l-295 -295l-25 25l295 295l-295 294l25 25l295 -294l294 294l25 -25z" />
<glyph unicode="&#x16f;" d="M445 340l294 -295l-25 -25l-294 295l-295 -295l-25 25l295 295l-295 294l25 25l295 -294l294 294l25 -25z" />
<glyph unicode="&#x170;" d="M445 340l294 -295l-25 -25l-294 295l-295 -295l-25 25l295 295l-295 294l25 25l295 -294l294 294l25 -25z" />
<glyph unicode="&#x171;" d="M445 340l294 -295l-25 -25l-294 295l-295 -295l-25 25l295 295l-295 294l25 25l295 -294l294 294l25 -25z" />
<glyph unicode="&#x172;" d="M445 340l294 -295l-25 -25l-294 295l-295 -295l-25 25l295 295l-295 294l25 25l295 -294l294 294l25 -25z" />
<glyph unicode="&#x173;" d="M445 340l294 -295l-25 -25l-294 295l-295 -295l-25 25l295 295l-295 294l25 25l295 -294l294 294l25 -25z" />
<glyph unicode="&#x174;" d="M445 340l294 -295l-25 -25l-294 295l-295 -295l-25 25l295 295l-295 294l25 25l295 -294l294 294l25 -25z" />
<glyph unicode="&#x175;" d="M445 340l294 -295l-25 -25l-294 295l-295 -295l-25 25l295 295l-295 294l25 25l295 -294l294 294l25 -25z" />
<glyph unicode="&#x176;" d="M445 340l294 -295l-25 -25l-294 295l-295 -295l-25 25l295 295l-295 294l25 25l295 -294l294 294l25 -25z" />
<glyph unicode="&#x177;" d="M445 340l294 -295l-25 -25l-294 295l-295 -295l-25 25l295 295l-295 294l25 25l295 -294l294 294l25 -25z" />
<glyph unicode="&#x178;" d="M445 340l294 -295l-25 -25l-294 295l-295 -295l-25 25l295 295l-295 294l25 25l295 -294l294 294l25 -25z" />
<glyph unicode="&#x179;" d="M445 340l294 -295l-25 -25l-294 295l-295 -295l-25 25l295 295l-295 294l25 25l295 -294l294 294l25 -25z" />
<glyph unicode="&#x17a;" d="M445 340l294 -295l-25 -25l-294 295l-295 -295l-25 25l295 295l-295 294l25 25l295 -294l294 294l25 -25z" />
<glyph unicode="&#x17b;" d="M445 340l294 -295l-25 -25l-294 295l-295 -295l-25 25l295 295l-295 294l25 25l295 -294l294 294l25 -25z" />
<glyph unicode="&#x17c;" d="M445 340l294 -295l-25 -25l-294 295l-295 -295l-25 25l295 295l-295 294l25 25l295 -294l294 294l25 -25z" />
<glyph unicode="&#x17d;" d="M445 340l294 -295l-25 -25l-294 295l-295 -295l-25 25l295 295l-295 294l25 25l295 -294l294 294l25 -25z" />
<glyph unicode="&#x17e;" d="M445 340l294 -295l-25 -25l-294 295l-295 -295l-25 25l295 295l-295 294l25 25l295 -294l294 294l25 -25z" />
<glyph unicode="&#x192;" horiz-adv-x="561" d="M438 578q-43 0 -68 -25.5t-31 -70.5l-14 -107h168v-98h-181l-24 -181q-12 -94 -62 -148.5t-134 -54.5q-54 0 -109 15l16 101q43 -9 71 -9q43 0 68 25.5t31 70.5l24 181h-130v98h143l14 107q12 94 62 148.5t134 54.5q54 0 109 -15l-16 -101q-43 9 -71 9z" />
<glyph unicode="&#x1cd;" d="M445 340l294 -295l-25 -25l-294 295l-295 -295l-25 25l295 295l-295 294l25 25l295 -294l294 294l25 -25z" />
<glyph unicode="&#x1ce;" d="M445 340l294 -295l-25 -25l-294 295l-295 -295l-25 25l295 295l-295 294l25 25l295 -294l294 294l25 -25z" />
<glyph unicode="&#x218;" d="M445 340l294 -295l-25 -25l-294 295l-295 -295l-25 25l295 295l-295 294l25 25l295 -294l294 294l25 -25z" />
<glyph unicode="&#x219;" d="M445 340l294 -295l-25 -25l-294 295l-295 -295l-25 25l295 295l-295 294l25 25l295 -294l294 294l25 -25z" />
<glyph unicode="&#x21a;" d="M445 340l294 -295l-25 -25l-294 295l-295 -295l-25 25l295 295l-295 294l25 25l295 -294l294 294l25 -25z" />
<glyph unicode="&#x21b;" d="M445 340l294 -295l-25 -25l-294 295l-295 -295l-25 25l295 295l-295 294l25 25l295 -294l294 294l25 -25z" />
<glyph unicode="&#x2c6;" d="M445 340l294 -295l-25 -25l-294 295l-295 -295l-25 25l295 295l-295 294l25 25l295 -294l294 294l25 -25z" />
<glyph unicode="&#x2c7;" d="M445 340l294 -295l-25 -25l-294 295l-295 -295l-25 25l295 295l-295 294l25 25l295 -294l294 294l25 -25z" />
<glyph unicode="&#x2d8;" d="M445 340l294 -295l-25 -25l-294 295l-295 -295l-25 25l295 295l-295 294l25 25l295 -294l294 294l25 -25z" />
<glyph unicode="&#x2d9;" d="M445 340l294 -295l-25 -25l-294 295l-295 -295l-25 25l295 295l-295 294l25 25l295 -294l294 294l25 -25z" />
<glyph unicode="&#x2da;" d="M445 340l294 -295l-25 -25l-294 295l-295 -295l-25 25l295 295l-295 294l25 25l295 -294l294 294l25 -25z" />
<glyph unicode="&#x2db;" d="M445 340l294 -295l-25 -25l-294 295l-295 -295l-25 25l295 295l-295 294l25 25l295 -294l294 294l25 -25z" />
<glyph unicode="&#x2dc;" d="M445 340l294 -295l-25 -25l-294 295l-295 -295l-25 25l295 295l-295 294l25 25l295 -294l294 294l25 -25z" />
<glyph unicode="&#x2dd;" d="M445 340l294 -295l-25 -25l-294 295l-295 -295l-25 25l295 295l-295 294l25 25l295 -294l294 294l25 -25z" />
<glyph unicode="&#x326;" horiz-adv-x="0" d="M445 340l294 -295l-25 -25l-294 295l-295 -295l-25 25l295 295l-295 294l25 25l295 -294l294 294l25 -25z" />
<glyph unicode="&#x1e80;" d="M445 340l294 -295l-25 -25l-294 295l-295 -295l-25 25l295 295l-295 294l25 25l295 -294l294 294l25 -25z" />
<glyph unicode="&#x1e81;" d="M445 340l294 -295l-25 -25l-294 295l-295 -295l-25 25l295 295l-295 294l25 25l295 -294l294 294l25 -25z" />
<glyph unicode="&#x1e82;" d="M445 340l294 -295l-25 -25l-294 295l-295 -295l-25 25l295 295l-295 294l25 25l295 -294l294 294l25 -25z" />
<glyph unicode="&#x1e83;" d="M445 340l294 -295l-25 -25l-294 295l-295 -295l-25 25l295 295l-295 294l25 25l295 -294l294 294l25 -25z" />
<glyph unicode="&#x1e84;" d="M445 340l294 -295l-25 -25l-294 295l-295 -295l-25 25l295 295l-295 294l25 25l295 -294l294 294l25 -25z" />
<glyph unicode="&#x1e85;" d="M445 340l294 -295l-25 -25l-294 295l-295 -295l-25 25l295 295l-295 294l25 25l295 -294l294 294l25 -25z" />
<glyph unicode="&#x1ef2;" d="M445 340l294 -295l-25 -25l-294 295l-295 -295l-25 25l295 295l-295 294l25 25l295 -294l294 294l25 -25z" />
<glyph unicode="&#x1ef3;" d="M445 340l294 -295l-25 -25l-294 295l-295 -295l-25 25l295 295l-295 294l25 25l295 -294l294 294l25 -25z" />
<glyph unicode="&#x2013;" horiz-adv-x="643" d="M570 206v115h-497v-115h497z" />
<glyph unicode="&#x2014;" horiz-adv-x="977" d="M905 206v115h-832v-115h832z" />
<glyph unicode="&#x2018;" horiz-adv-x="209" d="M183 682l-53 -118q48 -20 48 -64q0 -31 -22.5 -52.5t-54.5 -21.5t-55 21.5t-23 52.5q0 25 25 71l59 111h76z" />
<glyph unicode="&#x2019;" horiz-adv-x="212" d="M26 431l53 118q-48 19 -48 64q0 31 22.5 52.5t54.5 21.5t55 -21.5t23 -52.5q0 -25 -25 -71l-59 -111h-76z" />
<glyph unicode="&#x201a;" horiz-adv-x="212" d="M26 -114l53 118q-48 19 -48 64q0 31 22.5 52.5t54.5 21.5t55 -21.5t23 -52.5q0 -25 -25 -71l-59 -111h-76z" />
<glyph unicode="&#x201c;" horiz-adv-x="395" d="M186 682l-53 -118q48 -20 48 -64q0 -31 -22.5 -52.5t-54.5 -21.5t-55 21.5t-23 52.5q0 25 25 71l59 111h76zM369 682l-53 -118q48 -20 48 -64q0 -31 -22.5 -52.5t-54.5 -21.5t-55 21.5t-23 52.5q0 25 25 71l59 111h76z" />
<glyph unicode="&#x201d;" horiz-adv-x="395" d="M26 431l53 118q-48 19 -48 64q0 31 22.5 52.5t54.5 21.5t55 -21.5t23 -52.5q0 -25 -25 -71l-59 -111h-76zM209 431l53 118q-48 19 -48 64q0 31 22.5 52.5t54.5 21.5t55 -21.5t23 -52.5q0 -25 -25 -71l-59 -111h-76z" />
<glyph unicode="&#x201e;" horiz-adv-x="398" d="M26 -114l53 118q-48 19 -48 64q0 31 22.5 52.5t54.5 21.5t55 -21.5t23 -52.5q0 -25 -25 -71l-59 -111h-76zM212 -114l53 118q-48 20 -48 64q0 31 22.5 52.5t54.5 21.5t55 -21.5t23 -52.5q0 -25 -25 -71l-59 -111h-76z" />
<glyph unicode="&#x2020;" horiz-adv-x="407" d="M242 525v-216h-77v216h-118v77h118v118h77v-118h118v-77h-118z" />
<glyph unicode="&#x2021;" horiz-adv-x="407" d="M242 487h118v-77h-118v-101h-77v101h-118v77h118v60h-118v77h118v96h77v-96h118v-77h-118v-60z" />
<glyph unicode="&#x2022;" horiz-adv-x="331" d="M165 167q-53 0 -92 39t-39 91t39 91t92 39t93 -39t40 -91t-40 -91t-93 -39z" />
<glyph unicode="&#x2026;" horiz-adv-x="718" d="M104 -9q-32 0 -55 22t-23 54q0 31 23 53t55 22t55.5 -22t23.5 -53q0 -33 -23 -54.5t-56 -21.5zM355 -9q-32 0 -55 22t-23 54q0 31 23 53t55 22t55.5 -22t23.5 -53q0 -33 -23 -54.5t-56 -21.5zM613 -9q-32 0 -55 22t-23 54q0 31 23 53t55 22t55.5 -22t23.5 -53 q0 -33 -23 -54.5t-56 -21.5z" />
<glyph unicode="&#x2030;" horiz-adv-x="1583" d="M298 695q84 0 140 -54t56 -139q0 -87 -56 -141.5t-140 -54.5t-140.5 54.5t-56.5 141.5q0 85 56.5 139t140.5 54zM372 -11l-53 36l425 665l53 -34zM298 389q46 0 77.5 31.5t31.5 81.5q0 48 -31.5 79t-77.5 31t-78 -31t-32 -79q0 -50 31.5 -81.5t78.5 -31.5zM828 374 q84 0 140.5 -54.5t56.5 -139.5q0 -87 -56 -141t-141 -54q-84 0 -140 54.5t-56 140.5q0 85 56 139.5t140 54.5zM1285 374q84 0 140.5 -54.5t56.5 -139.5q0 -87 -56 -141t-141 -54q-84 0 -140 54.5t-56 140.5q0 85 56 139.5t140 54.5zM828 68q47 0 78.5 31.5t31.5 80.5 t-31.5 80t-78.5 31q-46 0 -77.5 -31t-31.5 -80t31.5 -80.5t77.5 -31.5zM1285 68q47 0 78.5 31.5t31.5 80.5t-31.5 80t-78.5 31q-46 0 -77.5 -31t-31.5 -80t31.5 -80.5t77.5 -31.5z" />
<glyph unicode="&#x2039;" horiz-adv-x="268" d="M142 252l78 -124v-29h-77l-113 153l113 153h77v-29z" />
<glyph unicode="&#x203a;" horiz-adv-x="268" d="M48 405h77l113 -153l-113 -153h-77v29l78 124l-78 124v29z" />
<glyph unicode="&#x2044;" horiz-adv-x="483" d="M57 -11l-53 36l425 665l53 -34z" />
<glyph unicode="&#x2070;" d="M445 340l294 -295l-25 -25l-294 295l-295 -295l-25 25l295 295l-295 294l25 25l295 -294l294 294l25 -25z" />
<glyph unicode="&#x2074;" d="M445 340l294 -295l-25 -25l-294 295l-295 -295l-25 25l295 295l-295 294l25 25l295 -294l294 294l25 -25z" />
<glyph unicode="&#x2075;" d="M445 340l294 -295l-25 -25l-294 295l-295 -295l-25 25l295 295l-295 294l25 25l295 -294l294 294l25 -25z" />
<glyph unicode="&#x2076;" d="M445 340l294 -295l-25 -25l-294 295l-295 -295l-25 25l295 295l-295 294l25 25l295 -294l294 294l25 -25z" />
<glyph unicode="&#x2077;" d="M445 340l294 -295l-25 -25l-294 295l-295 -295l-25 25l295 295l-295 294l25 25l295 -294l294 294l25 -25z" />
<glyph unicode="&#x2078;" d="M445 340l294 -295l-25 -25l-294 295l-295 -295l-25 25l295 295l-295 294l25 25l295 -294l294 294l25 -25z" />
<glyph unicode="&#x2079;" d="M445 340l294 -295l-25 -25l-294 295l-295 -295l-25 25l295 295l-295 294l25 25l295 -294l294 294l25 -25z" />
<glyph unicode="&#x2080;" d="M445 340l294 -295l-25 -25l-294 295l-295 -295l-25 25l295 295l-295 294l25 25l295 -294l294 294l25 -25z" />
<glyph unicode="&#x2081;" d="M445 340l294 -295l-25 -25l-294 295l-295 -295l-25 25l295 295l-295 294l25 25l295 -294l294 294l25 -25z" />
<glyph unicode="&#x2082;" d="M445 340l294 -295l-25 -25l-294 295l-295 -295l-25 25l295 295l-295 294l25 25l295 -294l294 294l25 -25z" />
<glyph unicode="&#x2083;" d="M445 340l294 -295l-25 -25l-294 295l-295 -295l-25 25l295 295l-295 294l25 25l295 -294l294 294l25 -25z" />
<glyph unicode="&#x2084;" d="M445 340l294 -295l-25 -25l-294 295l-295 -295l-25 25l295 295l-295 294l25 25l295 -294l294 294l25 -25z" />
<glyph unicode="&#x2085;" d="M445 340l294 -295l-25 -25l-294 295l-295 -295l-25 25l295 295l-295 294l25 25l295 -294l294 294l25 -25z" />
<glyph unicode="&#x2086;" d="M445 340l294 -295l-25 -25l-294 295l-295 -295l-25 25l295 295l-295 294l25 25l295 -294l294 294l25 -25z" />
<glyph unicode="&#x2087;" d="M445 340l294 -295l-25 -25l-294 295l-295 -295l-25 25l295 295l-295 294l25 25l295 -294l294 294l25 -25z" />
<glyph unicode="&#x2088;" d="M445 340l294 -295l-25 -25l-294 295l-295 -295l-25 25l295 295l-295 294l25 25l295 -294l294 294l25 -25z" />
<glyph unicode="&#x2089;" d="M445 340l294 -295l-25 -25l-294 295l-295 -295l-25 25l295 295l-295 294l25 25l295 -294l294 294l25 -25z" />
<glyph unicode="&#x20ac;" horiz-adv-x="870" d="M694 264h124q-23 -125 -116.5 -201.5t-221.5 -76.5q-117 0 -212 65.5t-132 171.5h-89v82h71q-2 22 -2 35q0 22 1 33h-70v82h88q36 107 129 173t208 66q145 0 229 -84v70h112v-264h-112q-19 76 -80 119.5t-142 43.5q-69 0 -124.5 -33t-85.5 -91h297l-21 -82h-301 q-2 -22 -2 -33q0 -13 2 -35h285l-20 -82h-239q30 -57 86 -89.5t124 -32.5q80 0 137.5 43.5t76.5 119.5z" />
<glyph unicode="&#x2116;" horiz-adv-x="1417" d="M819 680v-106h-85v-574h-94l-387 457v-351h85v-106h-291v106h86v468h-86v106h168l399 -476v370h-86v106h291zM1115 174q-109 0 -182.5 71.5t-73.5 179.5q0 107 73.5 177.5t182.5 70.5q108 0 182 -71t74 -177q0 -107 -74 -179t-182 -72zM1115 568q-61 0 -101 -41t-40 -102 q0 -62 40 -104t101 -42q60 0 100 42t40 104q0 60 -40 101.5t-100 41.5zM871 102h478v-102h-478v102z" />
<glyph unicode="&#x2117;" horiz-adv-x="840" d="M420 695q150 0 257 -102t107 -253t-107 -253t-257 -102t-257 102t-107 253t107 253t257 102zM419 48q120 0 208 85t88 207t-88 207t-208 85t-207.5 -85t-87.5 -207t87.5 -207t207.5 -85zM278 505h181q59 0 95 -31t36 -83q0 -51 -36.5 -81t-96.5 -30h-63v-92h-116v68h46 v182h-46v67zM393 343h65q28 0 43.5 13t15.5 36q0 21 -16 34t-43 13h-65v-96z" />
<glyph unicode="&#x2122;" horiz-adv-x="765" d="M323 680v-104h-61v41h-57v-175h52v-54h-168v54h51v175h-56v-41h-61v104h300zM709 626v-184h33v-54h-139v54h40v110l-79 -122h-36v1l-79 121v-110h32v-54h-139v54h42v184h-42v54h89l115 -172l114 172h82v-54h-33z" />
<glyph unicode="&#x215b;" d="M445 340l294 -295l-25 -25l-294 295l-295 -295l-25 25l295 295l-295 294l25 25l295 -294l294 294l25 -25z" />
<glyph unicode="&#x215c;" d="M445 340l294 -295l-25 -25l-294 295l-295 -295l-25 25l295 295l-295 294l25 25l295 -294l294 294l25 -25z" />
<glyph unicode="&#x215d;" d="M445 340l294 -295l-25 -25l-294 295l-295 -295l-25 25l295 295l-295 294l25 25l295 -294l294 294l25 -25z" />
<glyph unicode="&#x215e;" d="M445 340l294 -295l-25 -25l-294 295l-295 -295l-25 25l295 295l-295 294l25 25l295 -294l294 294l25 -25z" />
<glyph unicode="&#x2190;" horiz-adv-x="766" d="M237 287l218 -214l-76 -76l-345 344l345 345l76 -77l-217 -212h488v-110h-489z" />
<glyph unicode="&#x2191;" horiz-adv-x="779" d="M335 489l-214 -218l-76 76l344 345l345 -345l-77 -76l-212 217v-488h-110v489z" />
<glyph unicode="&#x2192;" horiz-adv-x="766" d="M40 397h488l-217 212l76 77l345 -345l-345 -344l-76 76l218 214h-489v110z" />
<glyph unicode="&#x2193;" horiz-adv-x="779" d="M445 680v-488l212 217l77 -76l-345 -345l-344 345l76 76l214 -218v489h110z" />
<glyph unicode="&#x2196;" horiz-adv-x="798" d="M692 0l-494 494v-302h-108v488h488v-108h-303l495 -495z" />
<glyph unicode="&#x2197;" horiz-adv-x="804" d="M529 572h-303v108h488v-488h-108v302l-494 -494l-78 77z" />
<glyph unicode="&#x2198;" horiz-adv-x="798" d="M106 680l494 -494v302h108v-488h-488v108h303l-495 495z" />
<glyph unicode="&#x2199;" horiz-adv-x="795" d="M275 108h303v-108h-488v488h108v-302l494 494l78 -77z" />
<glyph unicode="&#x2212;" horiz-adv-x="685" d="M104 383h476v-106h-476v106z" />
<glyph unicode="&#x25fc;" horiz-adv-x="475" d="M0 475h475v-475h-475v475z" />
<glyph unicode="&#xfb00;" horiz-adv-x="838" d="M654 473h179v-106h-179v-261h114v-106h-305v106h76v261h-281v-261h114v-106h-305v106h76v261h-133v106h133v48q0 109 69 173.5t180 64.5q90 0 196 -60q54 60 143 60q53 0 109 -15l-16 -95q-43 9 -71 9q-46 0 -72.5 -28t-26.5 -79v-78zM539 473v78q0 28 4 49 q-74 53 -144 53q-69 0 -105 -36.5t-36 -95.5v-48h281z" />
<glyph unicode="&#xfb03;" horiz-adv-x="1169" d="M1133 106v-106h-267v106h76v261h-288v-261h114v-106h-305v106h76v261h-281v-261h114v-106h-305v106h76v261h-133v106h133v48q0 109 69 173.5t180 64.5q93 0 204 -64q58 64 155 64q13 0 26 -0.5t22.5 -1.5t22 -3t19.5 -3t21.5 -4.5t21 -5t24 -6t24.5 -6.5l-22 -99 q-94 23 -145 23q-52 0 -81.5 -33t-29.5 -92v-55h403v-367h76zM539 473v55q0 35 8 69q-76 56 -148 56q-69 0 -105 -36.5t-36 -95.5v-48h281z" />
<glyph unicode="&#xfb04;" horiz-adv-x="1149" d="M1113 106v-106h-267v106h76v505q-63 42 -127 42q-69 0 -105 -36.5t-36 -95.5v-48h179v-106h-179v-261h114v-106h-305v106h76v261h-281v-261h114v-106h-305v106h76v261h-133v106h133v48q0 109 69 173.5t180 64.5q97 0 211 -69q69 69 185 69q84 0 178 -50h71v-603h76z M539 473v48q0 42 10 75q-78 57 -150 57q-69 0 -105 -36.5t-36 -95.5v-48h281z" />
<glyph horiz-adv-x="680" d="M47 680h341q121 0 195 -64.5t74 -170.5q0 -111 -78.5 -178.5t-207.5 -67.5h-28v110h41q69 0 111.5 37.5t42.5 98.5q0 56 -42.5 90t-111.5 34h-131v-463h106v-106h-312v106h86v468h-86v106z" />
<glyph horiz-adv-x="756" d="M746 106v-106h-256v89l-133 143h1v103h44q63 0 101 31.5t38 85.5q0 53 -38.5 85t-100.5 32h-149v-463h90v-106h-296v106h86v468h-86v106h355q116 0 186.5 -62.5t70.5 -165.5q0 -77 -43.5 -132t-119.5 -76l129 -138h121z" />
<glyph d="M445 340l294 -295l-25 -25l-294 295l-295 -295l-25 25l295 295l-295 294l25 25l295 -294l294 294l25 -25z" />
<glyph d="M445 340l294 -295l-25 -25l-294 295l-295 -295l-25 25l295 295l-295 294l25 25l295 -294l294 294l25 -25z" />
<glyph d="M445 340l294 -295l-25 -25l-294 295l-295 -295l-25 25l295 295l-295 294l25 25l295 -294l294 294l25 -25z" />
<glyph horiz-adv-x="833" d="M705 -125l-148 147q-74 -36 -156 -36q-147 0 -250.5 103.5t-103.5 250.5t103.5 250.5t250.5 103.5t250.5 -103.5t103.5 -250.5q0 -144 -99 -246l129 -131zM169 340q0 -101 67 -171.5t166 -70.5q98 0 165 70.5t67 171.5t-67 171.5t-165 70.5q-99 0 -166 -70.5t-67 -171.5z " />
<glyph horiz-adv-x="845" d="M821 106v-106h-351v106h72l-140 172h-147v-172h87v-106h-295v106h88v468h-88v106h295v-106h-87v-188h146l137 188h-89v106h337v-106h-115l-169 -234l187 -234h132z" />
<glyph d="M445 340l294 -295l-25 -25l-294 295l-295 -295l-25 25l295 295l-295 294l25 25l295 -294l294 294l25 -25z" />
<glyph horiz-adv-x="678" d="M628 228v-228h-579v57l179 233h-116v97h191l141 184h-268v-119h-112v228h561v-57l-2 -2l-182 -234h127v-97h-202l-140 -181h290v119h112z" />
<glyph d="M445 340l294 -295l-25 -25l-294 295l-295 -295l-25 25l295 295l-295 294l25 25l295 -294l294 294l25 -25z" />
<glyph d="M445 340l294 -295l-25 -25l-294 295l-295 -295l-25 25l295 295l-295 294l25 25l295 -294l294 294l25 -25z" />
<glyph d="M445 340l294 -295l-25 -25l-294 295l-295 -295l-25 25l295 295l-295 294l25 25l295 -294l294 294l25 -25z" />
<glyph d="M445 340l294 -295l-25 -25l-294 295l-295 -295l-25 25l295 295l-295 294l25 25l295 -294l294 294l25 -25z" />
<glyph horiz-adv-x="1349" d="M318 402l105 -17q212 -35 212 -197q0 -94 -66.5 -148t-182.5 -54q-143 0 -218 85v-71h-112v222h112q48 -67 93 -96.5t123 -29.5q57 0 92 23.5t35 62.5q0 75 -107 92l-131 22q-100 15 -150.5 65t-50.5 129q0 94 67 149.5t183 55.5q132 0 200 -74v59h103v-201h-110 q-62 112 -187 112q-62 0 -96 -25t-34 -70q0 -40 29.5 -62t90.5 -32zM987 402l105 -17q212 -35 212 -197q0 -94 -66.5 -148t-182.5 -54q-143 0 -218 85v-71h-112v222h112q48 -67 93 -96.5t123 -29.5q57 0 92 23.5t35 62.5q0 75 -107 92l-131 22q-100 15 -150.5 65t-50.5 129 q0 94 67 149.5t183 55.5q132 0 200 -74v59h103v-201h-110q-62 112 -187 112q-62 0 -96 -25t-34 -70q0 -40 29.5 -62t90.5 -32z" />
<glyph horiz-adv-x="408" d="M369 109l16 -104q-68 -20 -110 -20q-78 0 -119.5 42.5t-41.5 122.5v454h-75v106h190v-547q0 -67 64 -67q31 0 76 13z" />
<glyph d="M445 340l294 -295l-25 -25l-294 295l-295 -295l-25 25l295 295l-295 294l25 25l295 -294l294 294l25 -25z" />
<glyph d="M445 340l294 -295l-25 -25l-294 295l-295 -295l-25 25l295 295l-295 294l25 25l295 -294l294 294l25 -25z" />
<glyph d="M445 340l294 -295l-25 -25l-294 295l-295 -295l-25 25l295 295l-295 294l25 25l295 -294l294 294l25 -25z" />
<glyph d="M445 340l294 -295l-25 -25l-294 295l-295 -295l-25 25l295 295l-295 294l25 25l295 -294l294 294l25 -25z" />
<glyph d="M445 340l294 -295l-25 -25l-294 295l-295 -295l-25 25l295 295l-295 294l25 25l295 -294l294 294l25 -25z" />
<glyph horiz-adv-x="629" d="M563 473v-484q0 -103 -68.5 -164t-176.5 -61q-102 0 -169.5 54.5t-76.5 141.5h117q6 -41 40 -66t86 -25q59 0 96 32t37 88v51q-64 -55 -146 -55q-95 0 -152 62t-57 165v155h-76v106h191v-254q0 -61 31 -95t87 -34q66 0 122 69v208h-76v106h191z" />
<glyph d="M445 340l294 -295l-25 -25l-294 295l-295 -295l-25 25l295 295l-295 294l25 25l295 -294l294 294l25 -25z" />
<glyph d="M445 340l294 -295l-25 -25l-294 295l-295 -295l-25 25l295 295l-295 294l25 25l295 -294l294 294l25 -25z" />
<glyph d="M445 340l294 -295l-25 -25l-294 295l-295 -295l-25 25l295 295l-295 294l25 25l295 -294l294 294l25 -25z" />
<glyph d="M445 340l294 -295l-25 -25l-294 295l-295 -295l-25 25l295 295l-295 294l25 25l295 -294l294 294l25 -25z" />
<glyph horiz-adv-x="583" d="M557 106v-106h-189v27q-69 -37 -144 -37q-90 0 -140 40.5t-50 112.5q0 67 49 102t137 35h148v12q0 97 -99 97q-39 0 -65.5 -17.5t-31.5 -49.5h-116q6 82 68 124t144 42q99 0 156.5 -50.5t57.5 -145.5v-186h75zM238 85q68 0 130 42v67h-150q-38 0 -56 -14t-18 -36 q0 -26 23 -42.5t71 -16.5z" />
<glyph d="M445 340l294 -295l-25 -25l-294 295l-295 -295l-25 25l295 295l-295 294l25 25l295 -294l294 294l25 -25z" />
<glyph d="M445 340l294 -295l-25 -25l-294 295l-295 -295l-25 25l295 295l-295 294l25 25l295 -294l294 294l25 -25z" />
<glyph d="M445 340l294 -295l-25 -25l-294 295l-295 -295l-25 25l295 295l-295 294l25 25l295 -294l294 294l25 -25z" />
<glyph d="M445 340l294 -295l-25 -25l-294 295l-295 -295l-25 25l295 295l-295 294l25 25l295 -294l294 294l25 -25z" />
<glyph horiz-adv-x="583" d="M173 560q-30 0 -51.5 20.5t-21.5 49.5q0 30 21.5 50.5t51.5 20.5t51.5 -20.5t21.5 -50.5q0 -29 -21.5 -49.5t-51.5 -20.5zM381 560q-30 0 -51.5 20.5t-21.5 49.5q0 30 21.5 50.5t51.5 20.5t51.5 -20.5t21.5 -50.5q0 -29 -21.5 -49.5t-51.5 -20.5zM557 106v-106h-189v27 q-69 -37 -144 -37q-90 0 -140 40.5t-50 112.5q0 67 49 102t137 35h148v12q0 97 -99 97q-39 0 -65.5 -17.5t-31.5 -49.5h-116q6 82 68 124t144 42q99 0 156.5 -50.5t57.5 -145.5v-186h75zM238 85q68 0 130 42v67h-150q-38 0 -56 -14t-18 -36q0 -26 23 -42.5t71 -16.5z" />
<glyph d="M445 340l294 -295l-25 -25l-294 295l-295 -295l-25 25l295 295l-295 294l25 25l295 -294l294 294l25 -25z" />
<glyph d="M445 340l294 -295l-25 -25l-294 295l-295 -295l-25 25l295 295l-295 294l25 25l295 -294l294 294l25 -25z" />
<glyph d="M445 340l294 -295l-25 -25l-294 295l-295 -295l-25 25l295 295l-295 294l25 25l295 -294l294 294l25 -25z" />
<glyph d="M445 340l294 -295l-25 -25l-294 295l-295 -295l-25 25l295 295l-295 294l25 25l295 -294l294 294l25 -25z" />
<glyph d="M445 340l294 -295l-25 -25l-294 295l-295 -295l-25 25l295 295l-295 294l25 25l295 -294l294 294l25 -25z" />
<glyph horiz-adv-x="671" d="M654 106v-106h-240v96l-79 102h-106v-92h85v-106h-275v106h75v498h-75v106h190v-408h104l53 65h-1v106h243v-106h-113l-92 -113l119 -148h112z" />
<glyph d="M445 340l294 -295l-25 -25l-294 295l-295 -295l-25 25l295 295l-295 294l25 25l295 -294l294 294l25 -25z" />
<glyph horiz-adv-x="296" d="M171 553q-33 0 -56 22t-23 54q0 33 23 55t56 22t55.5 -22t22.5 -55q0 -32 -22.5 -54t-55.5 -22zM229 473v-533l-55 -193h-60v620h-75v106h190z" />
<glyph horiz-adv-x="557" d="M482 159l64 -72q-87 -102 -210 -102q-95 0 -149.5 55.5t-54.5 156.5v170h-116v106h116v147h115v-147h234v-106h-234v-173q0 -51 27 -79t72 -28q57 0 136 72z" />
<glyph d="M445 340l294 -295l-25 -25l-294 295l-295 -295l-25 25l295 295l-295 294l25 25l295 -294l294 294l25 -25z" />
<glyph d="M445 340l294 -295l-25 -25l-294 295l-295 -295l-25 25l295 295l-295 294l25 25l295 -294l294 294l25 -25z" />
<glyph d="M445 340l294 -295l-25 -25l-294 295l-295 -295l-25 25l295 295l-295 294l25 25l295 -294l294 294l25 -25z" />
<glyph horiz-adv-x="681" d="M506 363q136 -35 136 -168q0 -93 -66.5 -146.5t-184.5 -53.5q-27 0 -62 3v96q22 -1 55 -1q72 0 109 28t37 76q0 45 -32.5 70t-86.5 25h-63v85q66 12 95 45t29 74q0 43 -28.5 70.5t-81.5 27.5q-58 1 -92.5 -35t-39.5 -107v-85h-1v-261h1v-106h-191v106h75v261h-75v106h78 q11 106 74.5 164t168.5 58q104 0 164 -54t60 -143q0 -95 -78 -135z" />
<glyph horiz-adv-x="828" d="M789 109l16 -104q-68 -20 -110 -20q-78 0 -119.5 42.5t-41.5 122.5v456q-67 47 -135 47q-69 0 -105 -36.5t-36 -95.5v-48h179v-106h-179v-261h114v-106h-305v106h76v261h-133v106h133v48q0 109 69 173.5t180 64.5q84 0 178 -50h79v-546q0 -67 64 -67q31 0 76 13z" />
<glyph horiz-adv-x="1058" d="M786 484q99 0 168.5 -72t69.5 -175t-69.5 -175.5t-168.5 -72.5q-84 0 -145 44v-33h-191v106h76v505q-63 42 -127 42q-69 0 -105 -36.5t-36 -95.5v-48h179v-106h-179v-261h114v-106h-305v106h76v261h-133v106h133v48q0 109 69 173.5t180 64.5q84 0 178 -50h71v-269 q61 44 145 44zM768 89q60 0 100 43.5t40 104.5q0 60 -40 103.5t-100 43.5q-71 0 -127 -55v-185q56 -55 127 -55z" />
<glyph horiz-adv-x="1454" d="M1182 484q99 0 168.5 -72t69.5 -175t-69.5 -175.5t-168.5 -72.5q-84 0 -145 44v-33h-191v106h76v505q-63 42 -127 42q-69 0 -105 -36.5t-36 -95.5v-48h179v-106h-179v-261h114v-106h-305v106h76v261h-281v-261h114v-106h-305v106h76v261h-133v106h133v48q0 109 69 173.5 t180 64.5q97 0 211 -69q69 69 185 69q84 0 178 -50h71v-269q61 44 145 44zM539 473v48q0 42 10 75q-78 57 -150 57q-69 0 -105 -36.5t-36 -95.5v-48h281zM1164 89q60 0 100 43.5t40 104.5q0 60 -40 103.5t-100 43.5q-71 0 -127 -55v-185q56 -55 127 -55z" />
<glyph horiz-adv-x="1234" d="M1050 473h179v-106h-179v-261h114v-106h-305v106h76v261h-281v-261h114v-106h-305v106h76v261h-281v-261h114v-106h-305v106h76v261h-133v106h133v48q0 109 69 173.5t180 64.5q97 0 211 -69q69 69 185 69q90 0 196 -60q54 60 143 60q53 0 109 -15l-16 -95q-43 9 -71 9 q-46 0 -72.5 -28t-26.5 -79v-78zM539 473v48q0 42 10 75q-78 57 -150 57q-69 0 -105 -36.5t-36 -95.5v-48h281zM935 473v78q0 28 4 49q-74 53 -144 53q-69 0 -105 -36.5t-36 -95.5v-48h281z" />
<glyph horiz-adv-x="1491" d="M1467 106v-106h-267v106h75v148q0 62 -30.5 95.5t-85.5 33.5q-67 0 -122 -69v-208h76v-106h-267v106h76v505q-63 42 -127 42q-69 0 -105 -36.5t-36 -95.5v-48h179v-106h-179v-261h114v-106h-305v106h76v261h-281v-261h114v-106h-305v106h76v261h-133v106h133v48 q0 109 69 173.5t180 64.5q97 0 211 -69q69 69 185 69q84 0 178 -50h71v-275q64 54 146 54q94 0 151 -62t57 -165v-155h76zM539 473v48q0 42 10 75q-78 57 -150 57q-69 0 -105 -36.5t-36 -95.5v-48h281z" />
<glyph horiz-adv-x="1088" d="M1043 473v-508q0 -96 -34 -143.5t-130 -79.5l-44 94q55 25 74 48t19 71v412h-274v-261h114v-106h-305v106h76v261h-281v-261h114v-106h-305v106h76v261h-133v106h133v48q0 109 69 173.5t180 64.5q93 0 204 -64q58 64 155 64q13 0 26 -0.5t22.5 -1.5t22 -3t19.5 -3 t21.5 -4.5t21 -5t24 -6t24.5 -6.5l-22 -99q-94 23 -145 23q-52 0 -81.5 -33t-29.5 -92v-55h389zM539 473v55q0 35 8 69q-76 56 -148 56q-69 0 -105 -36.5t-36 -95.5v-48h281z" />
<glyph horiz-adv-x="1499" d="M1481 106v-106h-220v74l-117 144l-107 -86v-26h84v-106h-275v106h76v505q-63 42 -127 42q-69 0 -105 -36.5t-36 -95.5v-48h179v-106h-179v-261h114v-106h-305v106h76v261h-281v-261h114v-106h-305v106h76v261h-133v106h133v48q0 109 69 173.5t180 64.5q97 0 211 -69 q69 69 185 69q84 0 178 -50h71v-455l155 124v95h242v-106h-105l-98 -79l147 -182h103zM539 473v48q0 42 10 75q-78 57 -150 57q-69 0 -105 -36.5t-36 -95.5v-48h281z" />
<glyph horiz-adv-x="1478" d="M1461 106v-106h-240v98l-78 100h-106v-92h84v-106h-275v106h76v505q-63 42 -127 42q-69 0 -105 -36.5t-36 -95.5v-48h179v-106h-179v-261h114v-106h-305v106h76v261h-281v-261h114v-106h-305v106h76v261h-133v106h133v48q0 109 69 173.5t180 64.5q97 0 211 -69 q69 69 185 69q84 0 178 -50h71v-407h103l53 65v106h243v-106h-114l-91 -112l119 -149h111zM539 473v48q0 42 10 75q-78 57 -150 57q-69 0 -105 -36.5t-36 -95.5v-48h281z" />
<glyph horiz-adv-x="1224" d="M1185 109l16 -104q-68 -20 -110 -20q-78 0 -119.5 42.5t-41.5 122.5v456q-67 47 -135 47q-69 0 -105 -36.5t-36 -95.5v-48h179v-106h-179v-261h114v-106h-305v106h76v261h-281v-261h114v-106h-305v106h76v261h-133v106h133v48q0 109 69 173.5t180 64.5q97 0 211 -69 q69 69 185 69q84 0 178 -50h79v-546q0 -67 64 -67q31 0 76 13zM539 473v48q0 42 10 75q-78 57 -150 57q-69 0 -105 -36.5t-36 -95.5v-48h281z" />
<glyph horiz-adv-x="1263" d="M1223 104l16 -99q-65 -20 -118 -20q-84 0 -133.5 53t-49.5 144v185h-284v-261h114v-106h-305v106h76v261h-281v-261h114v-106h-305v106h76v261h-133v106h133v48q0 109 69 173.5t180 64.5q90 0 196 -60q54 60 143 60q53 0 109 -15l-16 -95q-43 9 -71 9q-46 0 -72.5 -28 t-26.5 -79v-78h284v147h115v-147h167v-106h-167v-185q0 -90 91 -90q38 0 79 12zM539 473v78q0 28 4 49q-74 53 -144 53q-69 0 -105 -36.5t-36 -95.5v-48h281z" />
<glyph horiz-adv-x="1095" d="M1071 106v-106h-267v106h75v148q0 62 -30.5 95.5t-85.5 33.5q-67 0 -122 -69v-208h76v-106h-267v106h76v505q-63 42 -127 42q-69 0 -105 -36.5t-36 -95.5v-48h179v-106h-179v-261h114v-106h-305v106h76v261h-133v106h133v48q0 109 69 173.5t180 64.5q84 0 178 -50h71 v-275q64 54 146 54q94 0 151 -62t57 -165v-155h76z" />
<glyph horiz-adv-x="692" d="M647 473v-508q0 -96 -34 -143.5t-130 -79.5l-44 94q55 25 74 48t19 71v412h-274v-261h114v-106h-305v106h76v261h-133v106h133v55q0 106 58.5 168.5t153.5 62.5q13 0 26 -0.5t22.5 -1.5t22 -3t20 -3t21.5 -4.5t20.5 -5t24 -6t24.5 -6.5l-22 -99q-94 23 -145 23 q-52 0 -81.5 -33t-29.5 -92v-55h389z" />
<glyph horiz-adv-x="1103" d="M1085 106v-106h-220v74l-117 144l-107 -86v-26h84v-106h-275v106h76v505q-63 42 -127 42q-69 0 -105 -36.5t-36 -95.5v-48h179v-106h-179v-261h114v-106h-305v106h76v261h-133v106h133v48q0 109 69 173.5t180 64.5q84 0 178 -50h71v-455l155 124v95h242v-106h-105 l-98 -79l147 -182h103z" />
<glyph horiz-adv-x="1083" d="M1065 106v-106h-240v98l-78 100h-106v-92h84v-106h-275v106h76v505q-63 42 -127 42q-69 0 -105 -36.5t-36 -95.5v-48h179v-106h-179v-261h114v-106h-305v106h76v261h-133v106h133v48q0 109 69 173.5t180 64.5q84 0 178 -50h71v-407h103l53 65v106h243v-106h-114l-91 -112 l119 -149h111z" />
<glyph horiz-adv-x="855" d="M671 473h185v-106h-185v-261h115v-106h-307v106h77v261h-123q-101 0 -204 -44v-217h118v-106h-308v106h75v261h-75v106h190v-60q84 60 204 60h123v78q0 95 52.5 151.5t139.5 56.5q54 0 109 -15l-16 -95q-43 9 -71 9q-46 0 -72.5 -28t-26.5 -79v-78z" />
<glyph horiz-adv-x="769" d="M599 553q-33 0 -56 22t-23 54q0 33 23 55t56 22t55.5 -22t22.5 -55q0 -32 -23 -54t-55 -22zM733 106v-106h-267v106h75v250h-107q-113 0 -205 -34v-216h118v-106h-308v106h75v261h-75v106h190v-59q79 59 205 59h222v-367h77z" />
<glyph horiz-adv-x="718" d="M595 553q-33 0 -56 22t-23 54q0 33 23 55t56 22t55.5 -22t22.5 -55q0 -32 -22.5 -54t-55.5 -22zM653 473v-508q0 -96 -34 -143.5t-130 -79.5l-44 94q55 25 74 48t19 71v401h-104q-113 0 -205 -34v-216h118v-106h-308v106h75v261h-75v106h190v-59q79 59 205 59h219z" />
<glyph horiz-adv-x="836" d="M796 104l16 -99q-65 -20 -118 -20q-84 0 -133.5 53t-49.5 144v185h-77q-101 0 -205 -43v-218h118v-106h-308v106h75v261h-75v106h190v-59q79 59 205 59h77v147h115v-147h166v-106h-166v-185q0 -90 91 -90q38 0 79 12z" />
<glyph horiz-adv-x="913" d="M838 159l64 -72q-87 -102 -210 -102q-95 0 -149.5 55.5t-54.5 156.5v170h-19q-148 0 -240 -43v-218h118v-106h-308v106h75v261h-75v106h190v-57q67 56 143 57h116v147h115v-147h234v-106h-234v-173q0 -51 27 -79t72 -28q57 0 136 72z" />
<glyph horiz-adv-x="1046" d="M962 367l-242 -468h55v-106h-305v106h124l54 105l-178 363h-222v-185q0 -90 91 -90q38 0 79 12l16 -99q-65 -20 -118 -20q-84 0 -133.5 53t-49.5 144v185h-116v106h116v147h115v-147h412v-106h-61l113 -236l120 236h-58v106h260v-106h-72z" />
<glyph horiz-adv-x="1153" d="M1069 367l-242 -468h55v-106h-305v106h124l54 105l-178 363h-330v-173q0 -51 27 -79t72 -28q57 0 136 72l64 -72q-87 -102 -210 -102q-95 0 -149.5 55.5t-54.5 156.5v170h-116v106h116v147h115v-147h520v-106h-61l113 -236l120 236h-58v106h260v-106h-72z" />
<glyph horiz-adv-x="1257" d="M1233 106v-106h-267v106h75v148q0 62 -30.5 95.5t-85.5 33.5q-67 0 -122 -69v-208h77v-106h-267v106h75v463h-281v-463h113v-106h-348v106h115v463h-146v-117h-108v228h655v39h115v-285q64 54 146 54q94 0 151 -62t57 -165v-155h76z" />
<glyph horiz-adv-x="1059" d="M1031 106v-106h-191v39q-65 -54 -146 -54q-93 0 -150 62t-57 165v155h-64q-112 0 -194 -60v-201h118v-106h-308v106h75v261h-75v106h190v-59q79 59 194 59h179v-254q0 -61 31 -95t85 -34q67 0 122 69v208h-76v106h191v-367h76z" />
<glyph horiz-adv-x="2306" d="M2295 367h-52l-144 -367h-101l-98 289l-99 -289h-99l-144 367h-61l-144 -367h-101l-98 289l-99 -289h-99l-144 367h-63l-144 -367h-101l-98 289l-99 -289h-99l-144 367h-52v106h234v-106h-65l76 -205l108 311h81l109 -313l77 207h-65v106h427v-106h-65l76 -205l108 311 h81l109 -313l77 207h-65v106h425v-106h-65l76 -205l108 311h81l109 -313l77 207h-65v106h234v-106z" />
<glyph horiz-adv-x="1033" d="M949 367l-242 -468h55v-106h-305v106h124l54 105l-178 363h-11q-124 -4 -217 -38v-223h118v-106h-308v106h75v261h-75v106h190v-51q67 51 158 51h260v-106h-61l113 -236l120 236h-58v106h260v-106h-72z" />
<glyph horiz-adv-x="1083" d="M1055 106v-106h-192v39q-65 -54 -146 -54q-93 0 -150 62t-57 165v155h-262v-185q0 -90 91 -90q38 0 79 12l16 -99q-65 -20 -118 -20q-84 0 -133.5 53t-49.5 144v185h-116v106h116v147h115v-147h377v-254q0 -61 31 -95t85 -34q67 0 122 69v208h-75v106h190v-367h77z" />
<glyph horiz-adv-x="1149" d="M1121 106v-106h-192v39q-65 -54 -146 -54q-93 0 -150 62t-57 165v155h-329v-173q0 -51 27 -79t72 -28q57 0 136 72l64 -72q-87 -102 -210 -102q-95 0 -149.5 55.5t-54.5 156.5v170h-116v106h116v147h115v-147h444v-254q0 -61 31 -95t85 -34q67 0 122 69v208h-75v106h190 v-367h77z" />
<glyph horiz-adv-x="853" d="M813 104l16 -99q-65 -20 -118 -20q-84 0 -133.5 53t-49.5 144v185h-280v-185q0 -90 91 -90q38 0 79 12l16 -99q-65 -20 -118 -20q-84 0 -133.5 53t-49.5 144v185h-116v106h116v147h115v-147h280v147h115v-147h167v-106h-167v-185q0 -90 91 -90q38 0 79 12z" />
<glyph horiz-adv-x="1006" d="M931 159l64 -72q-87 -102 -210 -102q-95 0 -149.5 55.5t-54.5 156.5v170h-334v-173q0 -51 27 -79t72 -28q57 0 136 72l64 -72q-87 -102 -210 -102q-95 0 -149.5 55.5t-54.5 156.5v170h-116v106h116v147h115v-147h334v147h115v-147h234v-106h-234v-173q0 -51 27 -79 t72 -28q57 0 136 72z" />
<glyph horiz-adv-x="1229" d="M1218 367h-52l-144 -367h-101l-98 289l-99 -289h-99l-144 367h-58q-112 0 -194 -60v-201h118v-106h-308v106h75v261h-75v106h190v-59q79 59 194 59h240v-106h-65l76 -205l108 311h81l109 -313l77 207h-65v106h234v-106z" />
<glyph horiz-adv-x="1027" d="M987 104l16 -99q-65 -20 -118 -20q-84 0 -133.5 53t-49.5 144v185h-129l-242 -468h55v-106h-305v106h124l54 105l-178 363h-70v106h260v-106h-61l113 -236l120 236h-58v106h317v147h115v-147h167v-106h-167v-185q0 -90 91 -90q38 0 79 12z" />
<glyph horiz-adv-x="1133" d="M1058 159l64 -72q-87 -102 -210 -102q-95 0 -149.5 55.5t-54.5 156.5v170h-135l-242 -468h55v-106h-305v106h124l54 105l-178 363h-70v106h260v-106h-61l113 -236l120 236h-58v106h323v147h115v-147h234v-106h-234v-173q0 -51 27 -79t72 -28q57 0 136 72z" />
<glyph d="M445 340l294 -295l-25 -25l-294 295l-295 -295l-25 25l295 295l-295 294l25 25l295 -294l294 294l25 -25z" />
<glyph d="M445 340l294 -295l-25 -25l-294 295l-295 -295l-25 25l295 295l-295 294l25 25l295 -294l294 294l25 -25z" />
<glyph d="M445 340l294 -295l-25 -25l-294 295l-295 -295l-25 25l295 295l-295 294l25 25l295 -294l294 294l25 -25z" />
<glyph d="M445 340l294 -295l-25 -25l-294 295l-295 -295l-25 25l295 295l-295 294l25 25l295 -294l294 294l25 -25z" />
<glyph d="M445 340l294 -295l-25 -25l-294 295l-295 -295l-25 25l295 295l-295 294l25 25l295 -294l294 294l25 -25z" />
<glyph d="M445 340l294 -295l-25 -25l-294 295l-295 -295l-25 25l295 295l-295 294l25 25l295 -294l294 294l25 -25z" />
<glyph d="M445 340l294 -295l-25 -25l-294 295l-295 -295l-25 25l295 295l-295 294l25 25l295 -294l294 294l25 -25z" />
<glyph d="M445 340l294 -295l-25 -25l-294 295l-295 -295l-25 25l295 295l-295 294l25 25l295 -294l294 294l25 -25z" />
<glyph d="M445 340l294 -295l-25 -25l-294 295l-295 -295l-25 25l295 295l-295 294l25 25l295 -294l294 294l25 -25z" />
<glyph d="M445 340l294 -295l-25 -25l-294 295l-295 -295l-25 25l295 295l-295 294l25 25l295 -294l294 294l25 -25z" />
<glyph d="M445 340l294 -295l-25 -25l-294 295l-295 -295l-25 25l295 295l-295 294l25 25l295 -294l294 294l25 -25z" />
<glyph d="M445 340l294 -295l-25 -25l-294 295l-295 -295l-25 25l295 295l-295 294l25 25l295 -294l294 294l25 -25z" />
<glyph d="M445 340l294 -295l-25 -25l-294 295l-295 -295l-25 25l295 295l-295 294l25 25l295 -294l294 294l25 -25z" />
<glyph d="M445 340l294 -295l-25 -25l-294 295l-295 -295l-25 25l295 295l-295 294l25 25l295 -294l294 294l25 -25z" />
<glyph d="M445 340l294 -295l-25 -25l-294 295l-295 -295l-25 25l295 295l-295 294l25 25l295 -294l294 294l25 -25z" />
<glyph d="M445 340l294 -295l-25 -25l-294 295l-295 -295l-25 25l295 295l-295 294l25 25l295 -294l294 294l25 -25z" />
<glyph d="M445 340l294 -295l-25 -25l-294 295l-295 -295l-25 25l295 295l-295 294l25 25l295 -294l294 294l25 -25z" />
<glyph d="M445 340l294 -295l-25 -25l-294 295l-295 -295l-25 25l295 295l-295 294l25 25l295 -294l294 294l25 -25z" />
<glyph d="M445 340l294 -295l-25 -25l-294 295l-295 -295l-25 25l295 295l-295 294l25 25l295 -294l294 294l25 -25z" />
<glyph d="M445 340l294 -295l-25 -25l-294 295l-295 -295l-25 25l295 295l-295 294l25 25l295 -294l294 294l25 -25z" />
<glyph horiz-adv-x="719" d="M353 695q141 0 223.5 -99.5t82.5 -255.5t-82.5 -255.5t-223.5 -99.5t-223.5 99.5t-82.5 255.5t82.5 255.5t223.5 99.5zM354 585q-88 0 -136 -68.5t-48 -176.5q0 -79 26 -137l245 358q-36 24 -87 24zM354 95q87 0 135 68.5t48 176.5q0 72 -23 129l-242 -354q35 -20 82 -20 z" />
<glyph d="M445 340l294 -295l-25 -25l-294 295l-295 -295l-25 25l295 295l-295 294l25 25l295 -294l294 294l25 -25z" />
<glyph d="M445 340l294 -295l-25 -25l-294 295l-295 -295l-25 25l295 295l-295 294l25 25l295 -294l294 294l25 -25z" />
<glyph d="M445 340l294 -295l-25 -25l-294 295l-295 -295l-25 25l295 295l-295 294l25 25l295 -294l294 294l25 -25z" />
<glyph d="M445 340l294 -295l-25 -25l-294 295l-295 -295l-25 25l295 295l-295 294l25 25l295 -294l294 294l25 -25z" />
<glyph d="M445 340l294 -295l-25 -25l-294 295l-295 -295l-25 25l295 295l-295 294l25 25l295 -294l294 294l25 -25z" />
<glyph d="M445 340l294 -295l-25 -25l-294 295l-295 -295l-25 25l295 295l-295 294l25 25l295 -294l294 294l25 -25z" />
<glyph d="M445 340l294 -295l-25 -25l-294 295l-295 -295l-25 25l295 295l-295 294l25 25l295 -294l294 294l25 -25z" />
<glyph d="M445 340l294 -295l-25 -25l-294 295l-295 -295l-25 25l295 295l-295 294l25 25l295 -294l294 294l25 -25z" />
<glyph d="M445 340l294 -295l-25 -25l-294 295l-295 -295l-25 25l295 295l-295 294l25 25l295 -294l294 294l25 -25z" />
<glyph d="M445 340l294 -295l-25 -25l-294 295l-295 -295l-25 25l295 295l-295 294l25 25l295 -294l294 294l25 -25z" />
<glyph d="M445 340l294 -295l-25 -25l-294 295l-295 -295l-25 25l295 295l-295 294l25 25l295 -294l294 294l25 -25z" />
<glyph d="M445 340l294 -295l-25 -25l-294 295l-295 -295l-25 25l295 295l-295 294l25 25l295 -294l294 294l25 -25z" />
<glyph d="M445 340l294 -295l-25 -25l-294 295l-295 -295l-25 25l295 295l-295 294l25 25l295 -294l294 294l25 -25z" />
<glyph d="M445 340l294 -295l-25 -25l-294 295l-295 -295l-25 25l295 295l-295 294l25 25l295 -294l294 294l25 -25z" />
<glyph d="M445 340l294 -295l-25 -25l-294 295l-295 -295l-25 25l295 295l-295 294l25 25l295 -294l294 294l25 -25z" />
<glyph d="M445 340l294 -295l-25 -25l-294 295l-295 -295l-25 25l295 295l-295 294l25 25l295 -294l294 294l25 -25z" />
<glyph d="M445 340l294 -295l-25 -25l-294 295l-295 -295l-25 25l295 295l-295 294l25 25l295 -294l294 294l25 -25z" />
<glyph d="M445 340l294 -295l-25 -25l-294 295l-295 -295l-25 25l295 295l-295 294l25 25l295 -294l294 294l25 -25z" />
<glyph d="M445 340l294 -295l-25 -25l-294 295l-295 -295l-25 25l295 295l-295 294l25 25l295 -294l294 294l25 -25z" />
<glyph d="M445 340l294 -295l-25 -25l-294 295l-295 -295l-25 25l295 295l-295 294l25 25l295 -294l294 294l25 -25z" />
<glyph d="M445 340l294 -295l-25 -25l-294 295l-295 -295l-25 25l295 295l-295 294l25 25l295 -294l294 294l25 -25z" />
<glyph d="M445 340l294 -295l-25 -25l-294 295l-295 -295l-25 25l295 295l-295 294l25 25l295 -294l294 294l25 -25z" />
<glyph d="M445 340l294 -295l-25 -25l-294 295l-295 -295l-25 25l295 295l-295 294l25 25l295 -294l294 294l25 -25z" />
<glyph d="M445 340l294 -295l-25 -25l-294 295l-295 -295l-25 25l295 295l-295 294l25 25l295 -294l294 294l25 -25z" />
<glyph d="M445 340l294 -295l-25 -25l-294 295l-295 -295l-25 25l295 295l-295 294l25 25l295 -294l294 294l25 -25z" />
<glyph d="M445 340l294 -295l-25 -25l-294 295l-295 -295l-25 25l295 295l-295 294l25 25l295 -294l294 294l25 -25z" />
<glyph d="M445 340l294 -295l-25 -25l-294 295l-295 -295l-25 25l295 295l-295 294l25 25l295 -294l294 294l25 -25z" />
<glyph d="M445 340l294 -295l-25 -25l-294 295l-295 -295l-25 25l295 295l-295 294l25 25l295 -294l294 294l25 -25z" />
<glyph d="M445 340l294 -295l-25 -25l-294 295l-295 -295l-25 25l295 295l-295 294l25 25l295 -294l294 294l25 -25z" />
<glyph d="M445 340l294 -295l-25 -25l-294 295l-295 -295l-25 25l295 295l-295 294l25 25l295 -294l294 294l25 -25z" />
<glyph d="M445 340l294 -295l-25 -25l-294 295l-295 -295l-25 25l295 295l-295 294l25 25l295 -294l294 294l25 -25z" />
<glyph d="M445 340l294 -295l-25 -25l-294 295l-295 -295l-25 25l295 295l-295 294l25 25l295 -294l294 294l25 -25z" />
<glyph d="M445 340l294 -295l-25 -25l-294 295l-295 -295l-25 25l295 295l-295 294l25 25l295 -294l294 294l25 -25z" />
<glyph d="M445 340l294 -295l-25 -25l-294 295l-295 -295l-25 25l295 295l-295 294l25 25l295 -294l294 294l25 -25z" />
<glyph d="M445 340l294 -295l-25 -25l-294 295l-295 -295l-25 25l295 295l-295 294l25 25l295 -294l294 294l25 -25z" />
<glyph d="M445 340l294 -295l-25 -25l-294 295l-295 -295l-25 25l295 295l-295 294l25 25l295 -294l294 294l25 -25z" />
<glyph d="M445 340l294 -295l-25 -25l-294 295l-295 -295l-25 25l295 295l-295 294l25 25l295 -294l294 294l25 -25z" />
<glyph d="M445 340l294 -295l-25 -25l-294 295l-295 -295l-25 25l295 295l-295 294l25 25l295 -294l294 294l25 -25z" />
<glyph d="M445 340l294 -295l-25 -25l-294 295l-295 -295l-25 25l295 295l-295 294l25 25l295 -294l294 294l25 -25z" />
<glyph d="M445 340l294 -295l-25 -25l-294 295l-295 -295l-25 25l295 295l-295 294l25 25l295 -294l294 294l25 -25z" />
<glyph d="M445 340l294 -295l-25 -25l-294 295l-295 -295l-25 25l295 295l-295 294l25 25l295 -294l294 294l25 -25z" />
<glyph d="M445 340l294 -295l-25 -25l-294 295l-295 -295l-25 25l295 295l-295 294l25 25l295 -294l294 294l25 -25z" />
<glyph d="M445 340l294 -295l-25 -25l-294 295l-295 -295l-25 25l295 295l-295 294l25 25l295 -294l294 294l25 -25z" />
<glyph d="M445 340l294 -295l-25 -25l-294 295l-295 -295l-25 25l295 295l-295 294l25 25l295 -294l294 294l25 -25z" />
<glyph d="M445 340l294 -295l-25 -25l-294 295l-295 -295l-25 25l295 295l-295 294l25 25l295 -294l294 294l25 -25z" />
<glyph d="M445 340l294 -295l-25 -25l-294 295l-295 -295l-25 25l295 295l-295 294l25 25l295 -294l294 294l25 -25z" />
<glyph horiz-adv-x="700" d="M350 141l-259 261l71 70l188 -189l188 188l71 -71z" />
<glyph horiz-adv-x="570" d="M246 337l188 -188l-71 -71l-259 259l261 259l70 -71z" />
<glyph horiz-adv-x="570" d="M466 336l-259 -258l-71 71l188 188l-189 188l70 71z" />
<glyph horiz-adv-x="700" d="M538 188l-188 188l-188 -189l-71 70l260 261l258 -259z" />
<glyph d="M445 340l294 -295l-25 -25l-294 295l-295 -295l-25 25l295 295l-295 294l25 25l295 -294l294 294l25 -25z" />
<glyph d="M445 340l294 -295l-25 -25l-294 295l-295 -295l-25 25l295 295l-295 294l25 25l295 -294l294 294l25 -25z" />
<glyph d="M445 340l294 -295l-25 -25l-294 295l-295 -295l-25 25l295 295l-295 294l25 25l295 -294l294 294l25 -25z" />
<glyph horiz-adv-x="840" d="M420 695q150 0 257 -102t107 -253t-107 -253t-257 -102t-257 102t-107 253t107 253t257 102zM419 48q120 0 208 85t88 207t-88 207t-208 85t-207.5 -85t-87.5 -207t87.5 -207t207.5 -85zM536 260h58v-68h-131v56l-25 37h-61v-93h-115v68h45v181h-45v68h179q58 0 93.5 -31 t35.5 -83q0 -69 -62 -96zM376 348h63q27 0 42.5 13t15.5 35q0 21 -15.5 34t-42.5 13h-63v-95z" />
<glyph d="M445 340l294 -295l-25 -25l-294 295l-295 -295l-25 25l295 295l-295 294l25 25l295 -294l294 294l25 -25z" />
<glyph d="M445 340l294 -295l-25 -25l-294 295l-295 -295l-25 25l295 295l-295 294l25 25l295 -294l294 294l25 -25z" />
<glyph d="M445 340l294 -295l-25 -25l-294 295l-295 -295l-25 25l295 295l-295 294l25 25l295 -294l294 294l25 -25z" />
<glyph d="M445 340l294 -295l-25 -25l-294 295l-295 -295l-25 25l295 295l-295 294l25 25l295 -294l294 294l25 -25z" />
<glyph d="M445 340l294 -295l-25 -25l-294 295l-295 -295l-25 25l295 295l-295 294l25 25l295 -294l294 294l25 -25z" />
<glyph horiz-adv-x="600" d="M196 891q30 0 51.5 -20.5t21.5 -50.5q0 -29 -21.5 -49.5t-51.5 -20.5t-51.5 20.5t-21.5 49.5q0 30 21.5 50.5t51.5 20.5zM404 891q30 0 51.5 -20.5t21.5 -50.5q0 -29 -21.5 -49.5t-51.5 -20.5t-51.5 20.5t-21.5 49.5q0 30 21.5 50.5t51.5 20.5z" />
<glyph d="M445 340l294 -295l-25 -25l-294 295l-295 -295l-25 25l295 295l-295 294l25 25l295 -294l294 294l25 -25z" />
<glyph d="M445 340l294 -295l-25 -25l-294 295l-295 -295l-25 25l295 295l-295 294l25 25l295 -294l294 294l25 -25z" />
<glyph d="M445 340l294 -295l-25 -25l-294 295l-295 -295l-25 25l295 295l-295 294l25 25l295 -294l294 294l25 -25z" />
<glyph d="M445 340l294 -295l-25 -25l-294 295l-295 -295l-25 25l295 295l-295 294l25 25l295 -294l294 294l25 -25z" />
<glyph d="M445 340l294 -295l-25 -25l-294 295l-295 -295l-25 25l295 295l-295 294l25 25l295 -294l294 294l25 -25z" />
<glyph d="M445 340l294 -295l-25 -25l-294 295l-295 -295l-25 25l295 295l-295 294l25 25l295 -294l294 294l25 -25z" />
</font>
</defs>
</svg>
